<?xml version="1.0" standalone="no"?>
<!DOCTYPE svg PUBLIC "-//W3C//DTD SVG 1.1//EN" "http://www.w3.org/Graphics/SVG/1.1/DTD/svg11.dtd" >
<svg>
<metadata>
Created by FontForge 20110222 at Fri Feb 10 11:36:42 2012
 By www-data
Copyright (c) 2011 by . All rights reserved.
</metadata>
<defs>
<font id="StaticBoldItalic" horiz-adv-x="475" >
  <font-face 
    font-family="Static Bold Italic"
    font-weight="700"
    font-style="italic"
    font-stretch="normal"
    units-per-em="1000"
    panose-1="2 0 5 6 0 0 0 2 0 3"
    ascent="750"
    descent="-250"
    x-height="444"
    cap-height="712"
    bbox="-40 -295 971 950"
    underline-thickness="50"
    underline-position="-50"
    unicode-range="U+0020-2122"
  />
    <missing-glyph />
    <glyph glyph-name="one" unicode="1" 
d="M386 90c25 0 43 -17 43 -38c0 -28 -30 -52 -62 -52h-238c-25 0 -43 17 -43 39c0 27 30 51 62 51h72l92 433c-16 -15 -32 -30 -47 -45c-11 -11 -28 -16 -43 -16c-37 0 -54 43 -24 74l162 154c10 11 26 16 42 16c26 0 47 -20 42 -45l-122 -571h64z" />
    <glyph glyph-name="two" unicode="2" 
d="M369 0h-274c-39 0 -51 41 -30 69l293 349c28 31 67 79 67 128c0 39 -25 70 -63 70c-44 0 -91 -40 -101 -89c-5 -24 -31 -44 -60 -44c-25 0 -42 17 -42 37c0 90 109 186 222 186c88 0 149 -64 149 -146c0 -83 -59 -147 -96 -191v1l-233 -279h188c25 0 42 -17 42 -38
c0 -29 -29 -53 -62 -53z" />
    <glyph glyph-name="three" unicode="3" 
d="M225 -6c-89 0 -150 66 -150 148c0 52 31 76 62 76c25 0 40 -17 40 -61c0 -39 28 -72 67 -72c44 0 90 40 100 87l19 91c10 48 -14 87 -59 87c-9 0 -19 -2 -27 -4c-25 -8 -46 -2 -55 14c-8 14 -1 38 11 54l176 195h-130l-4 -20c-13 -61 -100 -59 -93 0l14 66
c5 25 32 45 61 45h262c37 0 51 -41 28 -71c-60 -67 -131 -133 -193 -201c97 -6 128 -86 111 -165l-19 -91c-21 -98 -120 -178 -221 -178z" />
    <glyph glyph-name="four" unicode="4" 
d="M436 220c24 0 42 -17 42 -39c0 -28 -30 -52 -62 -52h-37l-19 -89c-5 -26 -32 -46 -60 -46c-29 0 -48 20 -43 46l19 89h-175c-33 0 -51 31 -34 61l278 486c11 16 34 30 53 30c34 0 52 -30 36 -61l-243 -425h105l13 64c6 25 33 45 62 45c28 0 47 -20 41 -45l-13 -64h37z
" />
    <glyph glyph-name="five" unicode="5" 
d="M335 489c102 0 169 -73 147 -178l-30 -139c-21 -98 -120 -178 -222 -178c-89 0 -151 58 -151 139c0 51 32 75 64 75c25 0 39 -17 39 -60c0 -38 29 -63 67 -63c45 0 91 40 101 87l30 139c10 48 -19 88 -64 88c-39 0 -75 -23 -93 -65c-10 -20 -32 -35 -56 -35
c-29 0 -48 20 -42 46l66 311c5 25 32 45 61 45h242c25 0 43 -17 43 -38c0 -29 -31 -53 -62 -53h-202l-33 -154c26 27 66 33 95 33z" />
    <glyph glyph-name="six" unicode="6" 
d="M328 462c102 0 169 -79 148 -178l-24 -112c-21 -98 -121 -178 -223 -178c-101 0 -166 80 -145 178l75 355c21 99 120 179 221 179c88 0 169 -48 149 -141c-16 -57 -103 -66 -103 1c0 38 -26 49 -65 49c-44 0 -90 -39 -101 -88l-22 -106c25 25 60 41 90 41zM248 85
c46 0 91 40 101 87l24 112c10 48 -18 87 -64 87c-44 0 -88 -29 -100 -87l-24 -112c-10 -47 19 -87 63 -87z" />
    <glyph glyph-name="seven" unicode="7" 
d="M128 54l297 555h-154l-7 -36c-11 -52 -100 -59 -93 0l17 82c6 25 32 45 61 45h264c35 0 49 -33 35 -59l-329 -615c-12 -20 -34 -32 -55 -32c-35 0 -49 34 -36 60z" />
    <glyph glyph-name="eight" unicode="8" 
d="M521 496c-10 -47 -45 -95 -85 -128c26 -32 41 -81 31 -128l-17 -82c-21 -97 -117 -174 -216 -174h-9c-99 0 -163 77 -142 174l17 82c10 47 45 96 86 128c-27 33 -42 81 -32 128l11 49c20 96 117 173 216 173h9c99 0 162 -77 142 -173zM365 240c10 46 -16 83 -59 83h-9
c-43 0 -86 -37 -96 -83l-17 -82c-10 -45 17 -83 60 -83h9c43 0 85 38 95 83zM316 414h9c43 0 85 37 94 82l11 49c10 46 -16 83 -59 83h-9c-43 0 -86 -37 -96 -83l-11 -49c-9 -45 18 -82 61 -82z" />
    <glyph glyph-name="B" unicode="B" horiz-adv-x="542" 
d="M583 554c0 -65 -39 -127 -97 -170c36 -32 57 -82 57 -136c0 -150 -129 -248 -269 -248h-153c-28 0 -48 20 -42 46l132 621c5 25 33 45 61 45h153c89 0 158 -68 158 -158zM406 624h-101l-42 -200h101c57 0 114 57 114 118c0 44 -29 82 -72 82zM292 87c75 0 145 56 145 149
c0 56 -37 103 -91 103h-101l-54 -252h101z" />
    <glyph glyph-name="O" unicode="O" horiz-adv-x="538" 
d="M264 -6c-116 0 -191 91 -167 204l67 316c24 112 138 204 254 204s190 -92 166 -204l-67 -316c-24 -113 -137 -204 -253 -204zM398 626c-59 0 -118 -51 -131 -112l-67 -316c-13 -61 24 -112 83 -112c58 0 117 51 130 112l67 316c13 61 -24 112 -82 112z" />
    <glyph glyph-name="C" unicode="C" horiz-adv-x="508" 
d="M269 -6c-117 0 -191 91 -167 204l67 316c24 112 137 204 254 204c108 0 178 -85 169 -184c-5 -22 -30 -47 -57 -50s-48 14 -48 52c0 52 -34 90 -84 90c-59 0 -118 -51 -131 -112l-67 -316c-13 -61 24 -112 83 -112c54 0 109 44 127 101c8 26 38 44 65 41
c25 -3 40 -28 37 -50c-36 -102 -148 -184 -248 -184z" />
    <glyph glyph-name="D" unicode="D" horiz-adv-x="539" 
d="M266 0h-144c-29 0 -49 20 -43 46l132 621c5 25 33 45 62 45h144c116 0 191 -91 167 -204l-65 -303c-24 -113 -137 -205 -253 -205zM305 620l-112 -527h93c59 0 116 50 129 112l65 303c13 62 -23 112 -82 112h-93z" />
    <glyph glyph-name="E" unicode="E" horiz-adv-x="474" 
d="M419 93c25 0 43 -17 43 -39c0 -30 -31 -54 -63 -54h-279c-28 0 -47 20 -41 46l132 621c5 25 32 45 60 45h276c26 0 43 -17 43 -38c0 -29 -30 -54 -62 -54h-223l-41 -191h195c25 0 43 -17 43 -40c0 -28 -30 -52 -63 -52h-195l-51 -244h226z" />
    <glyph glyph-name="F" unicode="F" horiz-adv-x="482" 
d="M549 619h-245l-41 -196h215c25 0 43 -17 43 -39c0 -29 -30 -53 -63 -53h-215l-61 -290c-6 -26 -33 -47 -62 -47s-48 21 -42 47l132 625c6 26 33 46 62 46h297c25 0 42 -17 42 -39c0 -29 -30 -54 -62 -54z" />
    <glyph glyph-name="G" unicode="G" horiz-adv-x="539" 
d="M264 -6c-116 0 -191 91 -167 204l67 316c24 113 138 204 254 204c101 0 168 -69 172 -158c3 -63 -103 -99 -108 -29c4 56 -31 95 -84 95c-58 0 -117 -51 -130 -112l-67 -316c-13 -61 24 -112 82 -112c59 0 123 42 138 112l20 93h-93c-65 0 -48 89 19 92h137
c29 0 49 -20 44 -45l-30 -140c-24 -113 -138 -204 -254 -204z" />
    <glyph glyph-name="H" unicode="H" horiz-adv-x="566" 
d="M587 718c29 0 48 -20 43 -46l-134 -631c-6 -26 -33 -47 -62 -47c-28 0 -47 21 -41 47l62 296h-211l-62 -296c-6 -26 -33 -47 -61 -47c-29 0 -49 21 -43 47l134 631c5 26 33 46 62 46c28 0 47 -20 42 -46l-52 -243h211l52 243c5 26 32 46 60 46z" />
    <glyph glyph-name="I" unicode="I" horiz-adv-x="436" 
d="M355 91c25 0 44 -15 44 -38c0 -29 -31 -53 -64 -53h-241c-26 0 -44 17 -44 39c0 30 30 52 64 52h69l112 530h-69c-26 0 -44 16 -44 38c0 29 30 53 64 53h241c25 0 44 -17 44 -39c0 -29 -31 -52 -64 -52h-68l-112 -530h68z" />
    <glyph glyph-name="J" unicode="J" horiz-adv-x="498" 
d="M210 -6c-101 0 -171 76 -171 167c0 41 28 64 58 67c27 3 47 -14 47 -51c0 -52 35 -91 86 -91c59 0 116 51 129 112l90 421h-181c-26 0 -43 17 -43 40c0 29 30 53 63 53h233c28 0 47 -20 42 -46l-100 -468c-24 -113 -137 -204 -253 -204z" />
    <glyph glyph-name="K" unicode="K" horiz-adv-x="506" 
d="M500 60c6 -27 -22 -66 -60 -66c-19 0 -36 12 -43 30l-86 332l-76 -70l-52 -245c-6 -26 -33 -47 -62 -47s-49 21 -43 47l134 631c5 26 33 46 62 46s48 -20 43 -46l-53 -246c95 92 189 185 284 276c11 10 29 16 44 16c38 0 55 -45 24 -75l-212 -206z" />
    <glyph glyph-name="L" unicode="L" horiz-adv-x="478" 
d="M425 99c25 0 43 -17 43 -40c0 -29 -31 -53 -63 -53h-282c-29 0 -48 20 -42 46l131 620c6 26 33 46 62 46s48 -20 42 -46l-121 -573h230z" />
    <glyph glyph-name="M" unicode="M" horiz-adv-x="703" 
d="M569 -6c-29 0 -48 21 -42 47l88 418l-180 -256c-12 -15 -32 -26 -53 -26c-20 0 -35 9 -40 25l-71 256l-88 -417c-6 -26 -33 -47 -62 -47c-28 0 -47 21 -41 47l134 631c5 26 32 46 60 46c20 0 37 -11 41 -26l99 -365c84 118 173 247 256 365c11 15 31 26 52 26
c31 0 46 -24 42 -46l-134 -631c-6 -26 -33 -47 -61 -47z" />
    <glyph glyph-name="N" unicode="N" horiz-adv-x="571" 
d="M439 -6c-18 0 -36 11 -41 26l-132 462l-84 -441c-6 -26 -33 -47 -62 -47c-28 0 -48 21 -42 47l134 631c5 26 35 46 61 46c19 0 36 -12 41 -26l132 -460l85 440c5 26 32 46 61 46s48 -20 43 -46l-134 -631c-5 -22 -26 -40 -50 -46l2 1c-6 -2 -9 -2 -14 -2z" />
    <glyph glyph-name="P" unicode="P" horiz-adv-x="513" 
d="M120 -6c-28 0 -48 21 -42 47l132 625c6 26 34 46 62 46h157c98 0 165 -72 165 -163c0 -123 -122 -229 -248 -229h-105l-59 -279c-6 -26 -33 -47 -62 -47zM304 619l-43 -206h105c61 0 122 57 122 122c0 47 -32 84 -79 84h-105z" />
    <glyph glyph-name="Q" unicode="Q" horiz-adv-x="545" 
d="M486 54c21 -30 -9 -77 -55 -77c-14 0 -25 4 -33 13l-24 31c-33 -17 -71 -27 -110 -27c-116 0 -191 91 -167 204l67 316c24 112 138 204 254 204s190 -92 166 -204l-67 -316c-8 -39 -30 -78 -56 -110zM283 86c15 0 22 1 38 7l-33 42c-20 28 11 79 54 79c14 0 26 -5 33 -15
l26 -34c5 11 9 21 12 33l67 316c13 61 -23 112 -82 112c-58 0 -118 -51 -131 -112l-67 -316c-13 -61 25 -112 83 -112z" />
    <glyph glyph-name="R" unicode="R" horiz-adv-x="524" 
d="M494 55v-1c1 -27 -26 -60 -62 -60c-21 0 -40 12 -44 31l-28 308c-2 -1 -15 -3 -117 -3l-62 -290c-5 -25 -32 -46 -61 -46c-28 0 -48 21 -43 46l134 627c5 25 33 45 61 45h165c96 0 162 -70 162 -159c0 -85 -60 -159 -140 -199zM263 422h113c59 0 117 54 117 117
c0 46 -31 81 -75 81h-113z" />
    <glyph glyph-name="S" unicode="S" horiz-adv-x="483" 
d="M235 -6c-113 0 -172 72 -172 150c0 50 33 74 64 74c26 0 42 -17 42 -60c0 -38 27 -72 85 -72c74 0 129 45 129 118c0 31 -12 63 -50 92l-24 16c-58 37 -74 49 -90 61c-45 35 -72 79 -72 136c0 129 119 209 240 209c97 0 165 -54 165 -141c0 -52 -33 -76 -65 -76
c-26 0 -41 17 -41 62c0 37 -24 63 -79 63c-74 0 -115 -53 -115 -104c0 -18 8 -44 38 -70c14 -12 50 -39 111 -78c55 -37 86 -95 86 -161c0 -140 -131 -219 -252 -219z" />
    <glyph glyph-name="T" unicode="T" horiz-adv-x="445" 
d="M205 712h332c25 0 43 -17 43 -38c0 -29 -31 -54 -63 -54h-114l-123 -579c-6 -26 -34 -47 -63 -47c-28 0 -47 21 -41 47l123 579h-114c-26 0 -43 17 -43 40c0 28 30 52 63 52z" />
    <glyph glyph-name="U" unicode="U" horiz-adv-x="568" 
d="M277 -6c-116 0 -190 92 -166 204l101 474c5 26 33 46 62 46c28 0 47 -20 42 -46l-101 -474c-13 -61 24 -111 82 -111c59 0 118 50 131 111l101 474c5 26 32 46 61 46c28 0 47 -20 42 -46l-101 -474c-24 -112 -137 -204 -254 -204z" />
    <glyph glyph-name="V" unicode="V" horiz-adv-x="502" 
d="M245 -6c-24 0 -42 14 -43 33l-40 632c-1 29 29 59 62 59c23 0 41 -15 42 -35l11 -166l9 -334l145 322l86 178c10 20 33 35 56 35c33 0 51 -32 38 -59c-100 -205 -210 -426 -309 -631c-10 -18 -34 -34 -57 -34z" />
    <glyph glyph-name="W" unicode="W" horiz-adv-x="765" 
d="M831 718c31 0 54 -29 37 -60v1l-318 -631c-11 -19 -33 -34 -56 -34s-41 13 -43 31l-20 227l-119 -227c-11 -19 -34 -31 -56 -31s-41 16 -42 34c-16 205 -33 426 -49 631v-1c-3 24 18 50 46 58c27 7 54 -5 57 -32c14 -164 21 -323 34 -491c37 68 68 135 105 204
c-9 86 -22 174 -31 260c-3 27 26 61 61 61c22 0 39 -13 43 -32l12 -146l73 146c11 19 34 32 57 32c33 0 50 -31 35 -61l-143 -260c10 -79 10 -124 19 -203c79 157 164 333 242 490c10 19 33 34 56 34z" />
    <glyph glyph-name="X" unicode="X" horiz-adv-x="504" 
d="M478 62v-1c6 -27 -21 -67 -60 -67c-19 0 -37 10 -42 24l-70 253l-179 -253c-11 -14 -32 -24 -51 -24c-31 0 -56 33 -32 67l226 309c-29 94 -60 186 -88 281c-8 28 23 67 61 67c20 0 37 -9 42 -25l62 -228l160 228c11 14 32 25 52 25c30 0 55 -34 31 -67l-206 -281z" />
    <glyph glyph-name="Y" unicode="Y" horiz-adv-x="476" 
d="M553 718c33 0 54 -33 33 -65l-238 -357l-54 -255c-6 -26 -32 -47 -61 -47s-48 21 -42 47l54 254l-85 358c-4 28 25 65 61 65c21 0 37 -11 41 -27l60 -278l178 278c12 16 31 27 53 27z" />
    <glyph glyph-name="Z" unicode="Z" horiz-adv-x="468" 
d="M389 0h-316c-38 0 -53 39 -32 68v-1l402 552h-223c-25 0 -43 17 -43 40c0 29 31 53 63 53h304c39 0 51 -39 31 -69l-401 -550h234c25 0 43 -17 43 -39c0 -30 -31 -54 -62 -54z" />
    <glyph glyph-name="nine" unicode="9" 
d="M281 240c-102 0 -165 78 -144 177l24 111c20 98 119 178 221 178c101 0 167 -80 147 -178l-76 -355c-21 -99 -121 -179 -222 -179c-87 0 -162 51 -142 146c12 56 102 67 102 -1c0 -38 21 -53 60 -53c45 0 90 39 100 87l24 110c-27 -29 -63 -43 -94 -43zM363 616
c-45 0 -90 -40 -100 -88l-24 -111c-10 -49 18 -88 63 -88s89 30 101 88l24 111c10 48 -19 88 -64 88z" />
    <glyph glyph-name="a" unicode="a" horiz-adv-x="466" 
d="M398 435c12 56 106 53 95 1l-85 -400c-13 -59 -108 -62 -99 0c-26 -31 -59 -44 -92 -45c-100 -3 -159 69 -138 169l32 151c24 104 95 165 198 165c44 0 74 -11 89 -41zM241 83c40 0 83 28 92 71l34 161c18 97 -126 97 -154 -4l-32 -151c-11 -54 17 -77 60 -77z" />
    <glyph glyph-name="b" unicode="b" horiz-adv-x="481" 
d="M264 433c33 27 70 40 105 40c81 1 150 -62 123 -156l-35 -163c-23 -107 -124 -168 -200 -161c-33 3 -64 12 -79 43c-18 -35 -40 -42 -59 -42c-27 0 -46 20 -40 46l132 622c5 24 32 44 59 44c29 0 48 -20 43 -44zM357 154l34 163c11 53 -24 67 -62 67
c-42 0 -81 -26 -90 -70l-34 -159c-11 -50 20 -72 60 -72c41 0 82 26 92 71z" />
    <glyph glyph-name="c" unicode="c" horiz-adv-x="440" 
d="M221 -6c-98 0 -161 77 -140 174l28 133c20 95 116 173 214 173c83 0 137 -38 144 -107c7 -70 -91 -93 -101 -26c1 35 -26 44 -62 44c-40 0 -84 -39 -93 -84l-28 -133c-12 -51 19 -83 57 -83c37 0 72 23 88 61c27 57 127 36 87 -36c-40 -71 -119 -116 -194 -116z" />
    <glyph glyph-name="e" unicode="e" horiz-adv-x="447" 
d="M323 474c98 0 163 -69 142 -165l-15 -70c-7 -31 -31 -45 -60 -45h-202l-7 -35c-10 -51 27 -75 67 -77c25 -1 50 9 67 32c45 59 121 2 71 -52c-45 -49 -102 -68 -166 -68c-98 0 -163 69 -142 165l33 152c20 94 114 163 212 163zM214 311l-7 -35h150l7 35
c9 43 -19 73 -60 73s-81 -30 -90 -73z" />
    <glyph glyph-name="d" unicode="d" horiz-adv-x="481" 
d="M391 433l49 229c5 24 32 44 61 44c27 0 46 -20 41 -44l-133 -622c-5 -26 -32 -46 -59 -46c-19 0 -39 7 -41 42c-29 -31 -62 -40 -97 -43c-78 -7 -155 54 -132 161l34 163c12 94 109 157 190 156c35 0 66 -13 87 -40zM214 317l-34 -163c-10 -45 21 -68 62 -68
c42 0 81 25 90 69l34 159c9 44 -18 70 -60 70c-41 0 -83 -23 -92 -67z" />
    <glyph glyph-name="f" unicode="f" horiz-adv-x="397" 
d="M410 468c62 0 50 -84 -19 -89h-89l-72 -339c-6 -26 -33 -46 -60 -46c-29 0 -48 20 -42 46l72 339h-42c-64 0 -47 86 19 89h42l17 81c9 41 32 80 68 111c35 30 78 46 123 46h49c24 0 42 -17 42 -38c0 -28 -30 -52 -62 -52h-49c-31 0 -61 -29 -69 -67l-17 -81h89z" />
    <glyph glyph-name="g" unicode="g" horiz-adv-x="467" 
d="M381 -71c-20 -94 -116 -167 -213 -167c-86 0 -145 49 -145 126c0 82 104 93 104 14c0 -34 24 -49 60 -49c41 0 82 33 91 76l21 99c-31 -23 -64 -32 -98 -34c-87 -4 -152 72 -128 159l34 158c20 92 99 165 198 165c44 0 74 -11 88 -41c12 56 106 53 95 1zM237 86
c41 0 82 25 91 68l35 161c17 97 -127 97 -154 -4l-34 -158c-10 -45 20 -67 62 -67z" />
    <glyph glyph-name="h" unicode="h" horiz-adv-x="476" 
d="M266 440c35 27 84 36 121 34c74 -3 126 -58 106 -152l-60 -282c-6 -26 -33 -46 -61 -46c-29 0 -48 20 -42 46l59 282c10 44 -19 62 -60 62c-42 0 -81 -26 -90 -70l-58 -274c-6 -26 -33 -46 -62 -46c-28 0 -46 20 -40 46l132 622c5 24 31 44 59 44c29 0 48 -20 43 -44z
" />
    <glyph glyph-name="i" unicode="i" horiz-adv-x="262" 
d="M271 689c88 0 64 -125 -26 -125c-88 0 -62 125 26 125zM228 474c27 0 46 -20 40 -46l-82 -388c-6 -26 -33 -46 -60 -46c-29 0 -48 20 -42 46l82 388c6 26 33 46 62 46z" />
    <glyph glyph-name="j" unicode="j" horiz-adv-x="346" 
d="M364 691c35 0 60 -24 60 -55c0 -40 -44 -74 -87 -74c-33 0 -57 24 -57 54c0 40 41 75 84 75zM83 -238c-69 0 -116 48 -116 114c0 47 33 71 65 71c24 0 37 -16 37 -59c0 -24 14 -36 33 -36c23 0 43 12 52 50l101 476h-98c-26 0 -44 17 -44 39c0 27 31 51 63 51h147
c25 0 45 -16 41 -44l-110 -522c-17 -79 -92 -140 -171 -140z" />
    <glyph glyph-name="k" unicode="k" horiz-adv-x="449" 
d="M428 62c10 -30 -20 -68 -58 -68c-19 0 -36 9 -41 24l-64 209c-54 -46 -55 -46 -55 -46l-29 -141c-6 -26 -33 -46 -61 -46s-47 20 -41 46l132 622c5 24 32 44 60 44s47 -20 42 -44l-76 -355c60 51 121 103 180 153c23 20 57 22 73 1c13 -17 6 -45 -13 -63l-123 -104z" />
    <glyph glyph-name="l" unicode="l" horiz-adv-x="376" 
d="M205 -6c-80 0 -129 61 -112 140l112 527c5 25 32 45 60 45s47 -20 42 -45l-112 -527c-6 -27 6 -49 29 -49c22 0 44 22 50 51c12 56 103 58 103 6c0 -74 -82 -148 -172 -148z" />
    <glyph glyph-name="m" unicode="m" horiz-adv-x="683" 
d="M554 474c99 0 152 -60 131 -160l-58 -274c-6 -26 -32 -46 -61 -46c-28 0 -46 20 -41 46l59 274c9 43 -9 70 -49 70s-70 -26 -79 -70l-58 -274c-6 -26 -33 -46 -60 -46c-29 0 -48 20 -43 46l59 274c9 43 -8 70 -49 70c-40 0 -68 -26 -77 -70l-58 -274
c-6 -26 -33 -46 -62 -46c-28 0 -47 20 -42 46l84 394c12 55 107 58 94 0c23 32 64 44 100 43c42 -1 71 -21 84 -53c35 30 73 50 126 50z" />
    <glyph glyph-name="n" unicode="n" horiz-adv-x="466" 
d="M244 431c34 37 71 46 105 46c84 -1 152 -46 127 -162l-59 -276c-5 -25 -32 -45 -59 -45c-29 0 -48 20 -43 45l59 275c9 44 -18 70 -60 70c-41 0 -81 -26 -90 -70l-59 -275c-5 -25 -32 -45 -59 -45c-29 0 -48 20 -43 45l84 395c10 51 109 63 97 -3z" />
    <glyph glyph-name="o" unicode="o" horiz-adv-x="456" 
d="M222 -6c-99 0 -163 70 -143 166l32 148c22 101 112 166 213 166c98 0 162 -71 142 -166l-32 -148c-24 -113 -118 -166 -212 -166zM305 384c-41 0 -83 -33 -92 -76l-32 -148c-13 -57 24 -74 61 -74c41 0 81 29 90 74l32 148c11 49 -20 76 -59 76z" />
    <glyph glyph-name="p" unicode="p" horiz-adv-x="486" 
d="M178 29l-47 -223c-5 -24 -32 -44 -61 -44c-27 0 -46 20 -41 44l132 622c6 26 33 46 60 46c19 0 39 -7 41 -42c29 31 62 40 97 43c78 7 155 -54 132 -161l-35 -163c-12 -94 -108 -157 -189 -156c-35 0 -67 7 -89 34zM357 151l34 163c10 45 -21 68 -62 68
c-42 0 -81 -25 -90 -69l-34 -159c-9 -44 18 -70 60 -70c41 0 83 23 92 67z" />
    <glyph glyph-name="q" unicode="q" horiz-adv-x="481" 
d="M304 29c-33 -27 -68 -34 -103 -34c-81 -1 -151 62 -123 156l35 163c23 107 124 168 200 161c33 -3 63 -12 79 -43c17 35 40 42 59 42c27 0 45 -20 40 -46l-132 -622c-5 -24 -33 -44 -60 -44c-29 0 -47 20 -42 44zM213 314l-35 -163c-9 -44 22 -67 63 -67
c42 0 81 26 90 70l33 159c9 44 -18 69 -60 69c-41 0 -81 -23 -91 -68z" />
    <glyph glyph-name="r" unicode="r" horiz-adv-x="409" 
d="M237 424c45 44 77 53 116 54c65 2 113 -37 113 -106c0 -75 -95 -89 -95 -18c0 31 -28 38 -57 38c-44 0 -84 -31 -94 -79l-58 -273c-6 -26 -33 -46 -61 -46c-29 0 -48 20 -43 46l83 389c12 59 111 64 96 -5z" />
    <glyph glyph-name="s" unicode="s" horiz-adv-x="410" 
d="M209 -10c-88 0 -143 22 -162 98c-18 54 83 94 98 40c9 -39 41 -51 79 -51c45 0 76 29 76 61c0 49 -100 60 -136 80c-28 16 -64 44 -64 99c0 88 91 157 195 157c68 0 119 -25 136 -74c25 -73 -91 -109 -95 -49c-2 27 -26 36 -60 36c-28 0 -75 -12 -75 -54
c0 -13 6 -24 24 -34c65 -33 180 -49 180 -145c0 -105 -104 -164 -196 -164z" />
    <glyph glyph-name="t" unicode="t" horiz-adv-x="434" 
d="M301 378l-52 -244c-6 -27 6 -49 29 -49s47 10 52 49c8 60 114 62 101 -13c-14 -79 -91 -127 -172 -127c-80 0 -129 61 -112 140l52 244h-41c-66 0 -52 87 19 90h41l41 193c5 25 33 45 62 45c27 0 45 -20 40 -45l-41 -193h80c65 0 49 -87 -19 -90h-80z" />
    <glyph glyph-name="u" unicode="u" horiz-adv-x="461" 
d="M310 37c-34 -37 -72 -46 -106 -46c-84 1 -151 46 -126 162l58 276c6 25 33 45 60 45c29 0 47 -20 42 -45l-58 -275c-9 -44 18 -70 60 -70c41 0 81 26 90 70l58 275c5 25 33 45 60 45c29 0 47 -20 42 -45l-84 -395c-9 -51 -108 -63 -96 3z" />
    <glyph glyph-name="v" unicode="v" horiz-adv-x="427" 
d="M206 -6c-23 0 -40 13 -42 31l-52 389c-5 57 92 82 102 30c7 -50 16 -89 18 -130l8 -164l77 164l72 130c39 59 120 27 88 -34l-217 -385c-9 -18 -29 -31 -54 -31z" />
    <glyph glyph-name="w" unicode="w" horiz-adv-x="626" 
d="M647 474c30 0 52 -30 34 -61c-71 -125 -158 -265 -229 -389c-25 -40 -86 -43 -97 -2l-18 128l-77 -128c-31 -43 -85 -37 -95 2l-67 389c-4 26 24 61 60 61c21 0 38 -10 43 -30l32 -172l8 -128c16 26 39 83 55 110c-11 55 -19 110 -29 165c-4 34 30 57 58 57
c20 0 37 -9 40 -30l11 -104l54 102c12 20 32 29 52 29c30 0 57 -26 34 -62l-97 -157l7 -110l63 127l103 173c12 17 34 30 55 30z" />
    <glyph glyph-name="x" unicode="x" horiz-adv-x="421" 
d="M389 64c11 -28 -20 -70 -58 -70c-18 0 -29 8 -35 21l-58 142l-117 -141c-12 -14 -29 -22 -46 -22c-35 0 -55 40 -26 71l-1 -1l152 175l-74 166c-9 27 19 69 57 69c20 0 30 -5 38 -20l52 -134l108 134c13 15 29 20 49 20c35 0 53 -40 27 -69c-49 -58 -96 -109 -144 -166z
" />
    <glyph glyph-name="y" unicode="y" horiz-adv-x="472" 
d="M450 474c29 0 47 -20 41 -45l-108 -511c-22 -104 -112 -156 -210 -156c-87 0 -151 42 -151 119c0 47 33 71 65 71c25 0 38 -16 38 -57c0 -36 30 -48 66 -48c41 0 79 18 90 71l20 94c-25 -12 -51 -18 -79 -18c-98 0 -162 76 -141 172l55 263c6 25 33 45 62 45
c28 0 47 -20 41 -45l-55 -263c-10 -45 16 -81 57 -81c33 0 52 1 83 37l65 307c6 25 33 45 61 45z" />
    <glyph glyph-name="z" unicode="z" horiz-adv-x="393" 
d="M332 97c64 0 48 -92 -21 -95h-238c-35 0 -55 36 -16 84l256 292h-158c-63 0 -46 89 20 92h235c38 0 54 -32 29 -69l-268 -304h161z" />
    <glyph glyph-name="Euro" unicode="&#x20ac;" horiz-adv-x="592" 
d="M541 218c26 -2 42 -24 34 -50c-31 -98 -136 -174 -242 -174c-115 0 -188 90 -164 201l8 38h-38c-63 0 -53 84 18 87h38l13 59h-38c-68 0 -48 84 19 87h38l8 39c24 112 135 201 250 201c99 0 178 -63 170 -163c-6 -21 -30 -46 -56 -49c-30 -3 -47 16 -47 48
c0 49 -37 74 -87 74c-58 0 -115 -51 -128 -111l-8 -39h105c62 0 51 -84 -19 -87h-105l-13 -59h105c66 0 48 -84 -18 -87h-105l-8 -38c-13 -60 24 -110 82 -110c52 0 103 37 122 92c9 24 36 44 66 41z" />
    <glyph glyph-name="section" unicode="&#xa7;" horiz-adv-x="511" 
d="M508 297c0 -62 -43 -115 -101 -149c20 -24 34 -58 34 -94c0 -101 -103 -174 -207 -174c-78 0 -158 44 -156 129c1 24 23 47 52 53c29 5 53 -13 52 -37c2 -34 39 -55 71 -55c37 0 84 24 84 70c0 36 -33 61 -60 81c-34 24 -68 48 -113 84c-26 21 -45 60 -45 101
c0 59 43 116 108 152c-20 26 -34 58 -28 98c20 91 110 148 203 150c77 0 141 -46 143 -123c1 -30 -27 -57 -61 -57c-24 0 -41 11 -42 36c-1 26 -18 54 -59 54c-37 0 -81 -22 -81 -65c0 -17 12 -38 29 -52c43 -34 89 -67 131 -100c30 -24 46 -62 46 -102zM237 280l71 -56h-1
c9 -7 18 -11 29 -11c16 0 34 9 50 27v-1c11 12 18 30 18 46c0 15 -5 31 -15 39c-21 18 -48 37 -70 55h1c-8 6 -19 9 -30 9c-16 0 -35 -7 -50 -25s-18 -33 -18 -47s5 -29 15 -36z" />
    <glyph glyph-name="yen" unicode="&#xa5;" horiz-adv-x="517" 
d="M566 706c32 0 52 -32 33 -64l-184 -277h59c25 0 42 -16 42 -37c0 -29 -30 -53 -61 -53h-93l-9 -42h93c24 0 42 -17 42 -39c0 -29 -30 -53 -62 -53h-93l-21 -101c-6 -26 -33 -46 -61 -46s-47 20 -41 46l21 101h-93c-25 0 -42 17 -42 39c0 29 30 53 62 53h93l9 42h-93
c-25 0 -43 17 -43 39c0 28 31 51 62 51h60l-67 277c-4 28 25 64 60 64c21 0 36 -10 41 -26l56 -285l179 285c10 16 30 26 51 26z" />
    <glyph glyph-name="dollar" unicode="$" horiz-adv-x="493" 
d="M221 -75c-27 0 -46 20 -41 45l7 32c-77 20 -119 84 -119 149c0 48 33 72 64 72c25 0 39 -17 39 -67c0 -29 11 -52 37 -58l51 243l-7 5c-13 8 -23 14 -29 20c-44 35 -72 81 -72 136c0 105 86 176 185 199l4 19c5 25 32 45 59 45c29 0 48 -20 43 -45l-4 -19
c71 -17 121 -65 121 -136c0 -48 -33 -72 -64 -72c-26 0 -41 17 -41 60c0 23 -11 42 -37 50l-46 -216l29 -19c56 -36 87 -91 87 -156c0 -120 -98 -193 -198 -211l-7 -31c-5 -25 -32 -45 -61 -45zM385 202c0 30 -10 59 -37 78l-40 -187c45 16 77 53 77 109zM250 516
c0 -33 16 -54 37 -74l37 175c-51 -24 -74 -58 -74 -101z" />
    <glyph glyph-name="numbersign" unicode="#" horiz-adv-x="662" 
d="M679 509c24 0 42 -17 42 -38c0 -29 -30 -52 -62 -52h-82l-64 -145h66c25 0 43 -17 43 -39c0 -28 -30 -51 -62 -51h-87c-23 -49 -50 -106 -71 -154c-10 -19 -29 -36 -58 -36c-27 0 -50 27 -36 56h-1l59 134h-94c-22 -49 -50 -106 -71 -154c-10 -19 -29 -36 -57 -36
c-31 0 -52 25 -38 55l60 135h-67c-26 0 -44 16 -44 37c0 29 30 53 63 53h90l64 145h-75c-24 0 -42 16 -42 38c0 28 30 52 62 52h97c25 55 49 108 73 163c9 20 33 34 57 34c29 0 53 -25 39 -56c-21 -46 -42 -93 -63 -141h94c25 55 49 108 73 163c9 20 33 34 57 34
c29 0 53 -25 39 -56c-21 -46 -42 -93 -63 -141h59zM410 259l80 175h-115l-79 -175h114z" />
    <glyph glyph-name="sterling" unicode="&#xa3;" horiz-adv-x="493" 
d="M447 91c24 0 42 -17 42 -38c0 -29 -30 -53 -62 -53h-368c-25 0 -42 17 -42 39c0 28 31 52 62 52c29 0 56 26 63 57l35 164h-51c-25 0 -43 17 -43 39c0 28 31 52 62 52h51l28 132c20 94 116 171 218 171c86 0 148 -59 148 -142c0 -50 -33 -74 -64 -74c-26 0 -39 17 -39 61
c0 39 -26 65 -64 65c-45 0 -86 -32 -96 -81l-28 -132h98c25 0 42 -17 42 -38c0 -29 -30 -53 -61 -53h-98l-35 -164c-5 -20 -14 -39 -24 -57h226z" />
    <glyph glyph-name="germandbls" unicode="&#xdf;" horiz-adv-x="537" 
d="M572 551c0 -66 -39 -126 -95 -168c35 -32 55 -84 55 -137c0 -131 -131 -246 -265 -246h-3c-64 0 -49 88 19 91h3c70 0 142 68 142 143c0 55 -37 100 -90 100h-8c-64 0 -49 88 19 91h8c55 0 111 53 111 112c0 43 -31 79 -73 79h-15c-49 0 -91 -44 -102 -95l-100 -475
c-6 -26 -33 -46 -62 -46c-27 0 -46 20 -40 46l100 475c22 102 117 185 223 185h15c92 0 158 -69 158 -155z" />
    <glyph glyph-name="ampersand" unicode="&#x26;" horiz-adv-x="548" 
d="M526 70c21 -27 -11 -76 -53 -76c-16 0 -27 5 -34 15l-39 56l-19 -16c-37 -31 -84 -51 -149 -55c-70 -4 -126 18 -159 59c-77 95 2 260 117 321c-22 32 -53 80 -53 134c0 104 109 198 222 198c88 0 150 -65 150 -148c0 -51 -34 -75 -65 -75c-26 0 -39 17 -39 61
c0 40 -27 72 -66 72c-49 0 -98 -47 -98 -96c0 -32 22 -68 39 -92l146 -212c20 22 41 42 62 64c12 11 29 18 44 18c37 0 52 -43 24 -73c-27 -29 -52 -53 -79 -81zM231 285c-55 8 -109 -98 -75 -163c17 -33 56 -44 96 -37c30 5 53 13 78 34c5 6 14 14 20 19
c-40 58 -72 140 -119 147z" />
    <glyph glyph-name="percent" unicode="%" horiz-adv-x="656" 
d="M649 723c33 0 55 -33 32 -65l-467 -638c-13 -15 -34 -26 -52 -26c-32 0 -56 33 -32 66l468 638c11 17 32 25 51 25zM437 592c0 -86 -86 -159 -174 -159c-68 0 -116 50 -116 114c0 86 87 159 174 159c69 0 116 -50 116 -114zM242 560c0 -25 15 -46 39 -46
c30 0 62 32 62 66c0 25 -16 46 -39 46c-30 0 -62 -32 -62 -66zM536 267c68 0 116 -49 116 -114c0 -86 -86 -159 -174 -159c-68 0 -116 50 -116 114c0 87 86 159 174 159zM495 74c31 0 63 32 63 67c0 25 -16 46 -39 46c-31 0 -63 -32 -63 -67c0 -25 16 -46 39 -46z" />
    <glyph glyph-name="at" unicode="@" horiz-adv-x="648" 
d="M465 622c143 0 235 -113 205 -254l-26 -124c-12 -56 -80 -109 -141 -109c-29 0 -50 8 -66 21c-21 -12 -51 -20 -75 -20h-10c-68 0 -109 52 -95 118l24 114c16 75 78 120 146 120h10c68 0 109 -45 93 -120l-26 -124c-7 -35 41 -35 48 0l26 124c22 103 -45 168 -131 168
h-10c-87 0 -180 -68 -201 -168l-24 -114c-19 -89 43 -166 130 -166c25 0 43 -16 43 -37c0 -28 -30 -51 -62 -51c-144 0 -237 113 -207 254l24 114c30 141 171 254 315 254h10zM413 244l28 132c4 19 -6 34 -26 34s-38 -15 -42 -34l-28 -132c-4 -18 8 -32 28 -32s36 14 40 32z
" />
    <glyph glyph-name="quotedbl" unicode="&#x22;" horiz-adv-x="365" 
d="M194 435c-25 0 -41 18 -36 40l41 191c4 22 28 40 53 40c26 0 41 -18 37 -40l-41 -191c-5 -22 -28 -40 -54 -40zM345 435c-25 0 -40 18 -35 40l41 191c5 22 27 40 52 40c26 0 42 -18 37 -40l-40 -191c-5 -22 -29 -40 -55 -40z" />
    <glyph glyph-name="exclam" unicode="!" horiz-adv-x="282" 
d="M162 121c87 0 63 -124 -26 -124c-88 0 -60 124 26 124zM179 199c-28 0 -47 20 -41 46l88 416c5 25 33 45 61 45s46 -20 41 -45l-88 -416c-6 -26 -33 -46 -61 -46z" />
    <glyph glyph-name="quotesingle" unicode="'" horiz-adv-x="221" 
d="M196 436c-25 0 -42 19 -37 42l39 186c5 23 30 42 55 42c27 0 44 -19 39 -42l-39 -186c-5 -23 -30 -42 -57 -42z" />
    <glyph glyph-name="parenleft" unicode="(" horiz-adv-x="308" 
d="M231 -30c25 0 42 -17 42 -39c0 -28 -30 -52 -61 -52c-99 0 -162 77 -142 173l126 589c20 95 115 173 214 173c25 0 43 -17 43 -39c0 -29 -31 -53 -62 -53c-42 0 -85 -37 -94 -81l-126 -589c-9 -45 18 -82 60 -82z" />
    <glyph glyph-name="asterisk" unicode="*" horiz-adv-x="320" 
d="M431 621c2 -19 -16 -42 -38 -48h1l-58 -17l25 -48c11 -24 -14 -61 -48 -61c-13 0 -29 4 -33 16h1l-21 41c-14 -13 -28 -27 -41 -41h1c-9 -11 -23 -16 -38 -16c-32 0 -47 35 -22 61c19 19 26 28 45 48c-16 5 -35 12 -50 17h1c-22 6 -29 29 -19 48c11 22 38 33 60 25
l45 -15l12 56c5 21 28 38 53 38c23 0 40 -17 35 -38l-12 -56c17 5 33 9 51 15c26 8 47 -3 50 -25z" />
    <glyph glyph-name="plus" unicode="+" horiz-adv-x="411" 
d="M406 388c63 0 47 -87 -19 -90h-73l-17 -78c-5 -26 -31 -46 -60 -46c-28 0 -46 20 -41 46l17 78h-73c-63 0 -47 87 19 90h73l17 78c5 26 31 46 59 46c29 0 47 -20 42 -46l-17 -78h73z" />
    <glyph glyph-name="comma" unicode="," horiz-adv-x="200" 
d="M163 56c0 -18 -9 -29 -14 -41c-4 -7 -20 -33 -78 -124c-10 -18 -31 -29 -52 -29c-32 0 -42 26 -23 58l53 83c-17 4 -23 23 -23 37c0 37 38 68 81 68c34 0 56 -22 56 -52z" />
    <glyph glyph-name="hyphen" unicode="-" horiz-adv-x="383" 
d="M367 358c57 0 42 -81 -17 -81h-216c-55 0 -42 78 17 81h216z" />
    <glyph glyph-name="period" unicode="." horiz-adv-x="199" 
d="M113 114c32 0 53 -23 53 -51c0 -37 -38 -69 -78 -69c-31 0 -54 23 -54 50c0 37 40 70 79 70z" />
    <glyph glyph-name="slash" unicode="/" horiz-adv-x="415" 
d="M508 706c32 0 55 -33 33 -65l-446 -621c-13 -15 -34 -26 -52 -26c-32 0 -56 33 -32 66l446 621c12 17 32 25 51 25z" />
    <glyph glyph-name="asciitilde" unicode="~" horiz-adv-x="482" 
d="M120 345c0 14 8 28 24 39c33 23 65 34 101 34c40 0 67 -13 91 -26c22 -12 43 -20 63 -20c12 0 26 5 42 16c8 6 19 9 29 9c23 0 35 -16 35 -34c0 -15 -13 -32 -26 -41c-31 -22 -64 -34 -98 -34c-38 0 -68 13 -93 26c-23 11 -43 21 -62 21c-13 0 -26 -5 -43 -17
c-7 -5 -19 -8 -27 -8c-21 0 -36 15 -36 35z" />
    <glyph glyph-name="bar" unicode="|" horiz-adv-x="321" 
d="M138 -84c-27 0 -46 20 -40 46l148 699c5 25 33 45 60 45c29 0 47 -20 42 -45l-148 -699c-6 -26 -33 -46 -62 -46z" />
    <glyph glyph-name="currency" unicode="&#xa4;" horiz-adv-x="588" 
d="M479 120l38 -49c22 -26 -10 -77 -52 -77c-13 0 -27 5 -34 15l-35 45c-32 -15 -67 -24 -102 -24c-38 0 -67 6 -92 24l-56 -45c-11 -10 -25 -15 -39 -15c-38 0 -55 47 -21 77l59 49c-7 19 -11 46 -11 69c0 42 14 80 53 129l-38 48c-12 19 -7 45 13 63c11 10 26 14 39 14
s28 -4 34 -14l37 -45c31 15 67 24 102 24c38 0 66 -6 92 -24l54 45c12 10 26 14 39 14s28 -4 35 -14c13 -17 7 -45 -14 -63l-59 -48c8 -20 12 -47 12 -69c0 -42 -17 -87 -54 -129zM239 201c0 -44 29 -81 74 -81c55 0 116 54 116 116c0 44 -30 82 -74 82
c-57 0 -116 -55 -116 -117z" />
    <glyph glyph-name="less" unicode="&#x3c;" horiz-adv-x="375" 
d="M257 6l-171 193c-7 7 -12 19 -12 28c0 13 12 29 26 39l253 193c10 7 24 11 36 11c44 0 51 -53 17 -79l-208 -159l141 -159c26 -29 -14 -79 -51 -79c-13 0 -24 4 -31 12z" />
    <glyph glyph-name="greater" unicode="&#x3e;" horiz-adv-x="379" 
d="M210 459l171 -193c7 -7 11 -19 11 -29c0 -13 -12 -29 -25 -38l-253 -193c-10 -8 -23 -12 -36 -12c-44 0 -51 54 -18 79l209 159l-141 159c-26 30 14 79 51 79c14 0 25 -4 31 -11z" />
    <glyph glyph-name="degree" unicode="&#xb0;" horiz-adv-x="450" 
d="M312 437c-68 0 -115 49 -115 112c0 85 85 157 173 157c67 0 114 -49 114 -113c0 -84 -85 -156 -172 -156zM354 633c-35 0 -72 -34 -72 -73c0 -27 19 -50 46 -50c34 0 70 34 70 72c0 28 -18 51 -44 51z" />
    <glyph glyph-name="circumflex" unicode="&#x2c6;" horiz-adv-x="414" 
d="M213 611l103 85c8 6 22 10 35 10c11 0 24 -5 34 -13l64 -79c25 -28 -8 -74 -46 -74c-12 0 -24 4 -32 11l-41 58l-64 -58c-53 -39 -113 0 -53 60z" />
    <glyph glyph-name="guillemotleft" unicode="&#xab;" horiz-adv-x="558" 
d="M463 138c-13 0 -25 5 -33 12l-124 147c-5 8 -9 20 -9 29c0 12 12 27 24 37l186 146c10 8 24 13 37 13c44 0 51 -53 18 -79l-144 -113c32 -38 64 -75 95 -113c23 -29 -13 -79 -50 -79zM268 138c-13 0 -25 5 -34 12l-123 147c-5 8 -9 20 -9 29c0 12 12 27 24 37l185 146
c11 8 25 13 38 13c43 0 50 -53 18 -79l-144 -113c32 -38 64 -75 95 -113c23 -29 -13 -79 -50 -79z" />
    <glyph glyph-name="guillemotright" unicode="&#xbb;" horiz-adv-x="548" 
d="M132 144c-38 0 -53 50 -17 79l142 113l-94 112c-22 27 7 79 51 79c12 0 25 -4 32 -12l123 -147c6 -7 11 -19 11 -28c0 -11 -13 -28 -25 -37l-185 -147c-11 -8 -26 -12 -38 -12zM327 144c-38 0 -53 50 -17 79l142 113l-94 112c-22 27 7 79 51 79c13 0 25 -4 32 -12
l124 -147c5 -7 10 -19 10 -28c0 -11 -13 -28 -24 -37l-186 -147c-11 -8 -25 -12 -38 -12z" />
    <glyph glyph-name="grave" unicode="`" horiz-adv-x="421" 
d="M442 573v1c-15 -24 -50 -32 -73 -21c-40 22 -84 47 -123 68c-20 11 -27 38 -10 60c17 23 51 31 72 20c40 -21 84 -45 124 -66c21 -13 26 -41 10 -62z" />
    <glyph glyph-name="tilde" unicode="&#x2dc;" horiz-adv-x="351" 
d="M413 699c27 0 39 -19 39 -40c0 -40 -44 -87 -100 -87c-24 0 -48 12 -62 23l-36 27c-2 -9 -11 -19 -18 -26c-11 -11 -21 -16 -35 -16c-27 0 -39 19 -39 40c0 39 42 86 100 86c27 0 48 -11 62 -22c22 -17 27 -22 35 -26c3 8 8 17 17 26c7 7 19 15 37 15z" />
    <glyph glyph-name="multiply" unicode="&#xd7;" horiz-adv-x="371" 
d="M314 307l50 -62c13 -18 7 -47 -14 -64c-12 -10 -25 -13 -38 -13c-14 0 -27 3 -34 13l-46 58l-71 -58c-11 -10 -23 -13 -39 -13c-13 0 -26 3 -34 13c-13 17 -8 46 14 64l76 61l-49 64c-12 17 -6 47 13 63c23 19 57 20 73 0l46 -58l71 58c24 20 56 20 72 0
c13 -16 5 -46 -14 -63c-24 -21 -50 -41 -76 -63z" />
    <glyph glyph-name="acute" unicode="&#xb4;" horiz-adv-x="416" 
d="M255 552c-18 0 -35 9 -38 26v-1c-8 20 10 48 35 62l141 63c27 12 57 2 64 -20s-11 -49 -35 -60l-142 -65c-8 -4 -15 -5 -25 -5z" />
    <glyph glyph-name="quotesinglbase" unicode="&#x201a;" horiz-adv-x="265" 
d="M216 54c0 -16 -6 -28 -15 -40l1 1c-5 -7 -19 -33 -77 -124v0c-11 -18 -31 -29 -53 -29c-31 0 -49 31 -31 63c15 26 32 52 47 78c-6 8 -9 20 -9 31c0 39 38 74 81 74c34 0 56 -24 56 -54z" />
    <glyph glyph-name="quotedblbase" unicode="&#x201e;" horiz-adv-x="454" 
d="M395 54c0 -14 -5 -26 -12 -37l1 2c0 -1 -2 -3 -3 -5l1 1c-5 -7 -20 -33 -78 -124v0c-10 -18 -31 -29 -53 -29c-31 0 -49 31 -31 63c15 26 33 52 47 78c-5 8 -9 20 -9 32c0 38 39 73 82 73c34 0 55 -24 55 -54zM218 54c0 -13 -4 -25 -13 -37l1 2c0 -1 -2 -3 -3 -5l1 1
c-5 -7 -19 -33 -77 -124v0c-11 -18 -31 -29 -53 -29c-31 0 -50 31 -32 63c15 26 33 52 48 78c-6 8 -9 20 -9 31c0 39 38 74 81 74c34 0 56 -24 56 -54z" />
    <glyph glyph-name="quotedblleft" unicode="&#x201c;" horiz-adv-x="363" 
d="M135 514c0 13 5 25 13 37l-2 -3l5 6l-1 -1c4 8 19 33 77 125v-1c11 18 30 29 52 29c31 0 50 -31 32 -63c-15 -25 -32 -52 -48 -78c6 -8 10 -19 10 -31c0 -39 -38 -73 -81 -73c-34 0 -57 23 -57 53zM306 514c0 14 5 26 12 37l-2 -3l5 6l-1 -1c4 8 20 33 78 125v-1
c10 18 30 29 51 29c32 0 52 -31 33 -63c-14 -25 -33 -52 -48 -78c5 -8 10 -19 10 -32c0 -38 -39 -72 -82 -72c-34 0 -56 23 -56 53z" />
    <glyph glyph-name="quotedblright" unicode="&#x201d;" horiz-adv-x="373" 
d="M483 653c0 -14 -5 -27 -13 -37l1 2c0 -1 -2 -3 -3 -5l1 1c-5 -8 -19 -33 -78 -125l1 1c-11 -18 -31 -29 -53 -29c-31 0 -50 31 -32 62c15 26 33 53 48 79c-6 8 -9 19 -9 31c0 39 37 73 80 73c35 0 57 -23 57 -53zM317 653c0 -14 -5 -27 -13 -37l1 2c0 -1 -2 -3 -3 -5l1 1
c-5 -8 -19 -33 -78 -125l1 1c-11 -18 -31 -29 -53 -29c-32 0 -50 31 -32 62c15 26 33 53 48 79c-6 8 -10 20 -10 32c0 38 38 72 81 72c34 0 57 -23 57 -53z" />
    <glyph glyph-name="quoteright" unicode="&#x2019;" horiz-adv-x="195" 
d="M310 653c0 -14 -5 -27 -13 -37l1 2c0 -1 -2 -3 -3 -5l1 1c-5 -8 -19 -33 -78 -125l1 1c-11 -18 -31 -29 -53 -29c-31 0 -50 31 -32 62c15 26 33 53 48 79c-6 8 -9 19 -9 31c0 39 37 73 80 73c35 0 57 -23 57 -53z" />
    <glyph glyph-name="quoteleft" unicode="&#x2018;" horiz-adv-x="195" 
d="M129 514c0 20 6 29 12 37l-2 -3l5 6l-1 -1c4 8 20 33 78 125v-1c10 18 29 29 51 29c32 0 50 -31 32 -63c-15 -25 -32 -52 -47 -78c5 -8 10 -19 10 -32c0 -38 -39 -72 -82 -72c-34 0 -56 23 -56 53z" />
    <glyph glyph-name="dagger" unicode="&#x2020;" horiz-adv-x="420" 
d="M427 467c29 0 42 -18 42 -37c0 -25 -23 -53 -61 -53h-73l-71 -337c-6 -26 -32 -46 -60 -46c-29 0 -47 20 -41 46l71 337h-73c-24 0 -41 16 -41 38c0 28 29 52 60 52h73l42 194c5 25 31 45 60 45c28 0 46 -20 41 -45l-42 -194h73z" />
    <glyph glyph-name="logicalnot" unicode="&#xac;" horiz-adv-x="556" 
d="M437 187l29 139h-294c-25 0 -42 17 -42 38c0 29 29 53 62 53h345c29 0 47 -20 42 -46l-39 -184c-6 -26 -33 -46 -62 -46c-28 0 -47 20 -41 46z" />
    <glyph glyph-name="oe" unicode="&#x153;" horiz-adv-x="711" 
d="M579 474c98 0 160 -76 140 -173l-13 -62c-6 -26 -33 -46 -60 -46h-201l-6 -26c-10 -45 16 -84 57 -84c28 0 56 8 75 36c41 53 119 9 76 -47c-41 -54 -104 -79 -170 -79c-50 0 -91 23 -111 74c-40 -53 -91 -73 -141 -73c-97 0 -160 77 -140 173l28 136
c20 95 117 171 214 171c50 0 95 -24 112 -66c37 43 93 66 140 66zM244 86c42 0 83 36 92 81l29 136c9 43 -15 81 -57 81c-41 0 -84 -38 -93 -81l-29 -136c-10 -45 17 -81 58 -81zM617 303c9 43 -15 81 -57 81c-41 0 -83 -38 -92 -81l-6 -27h150z" />
    <glyph glyph-name="ae" unicode="&#xe6;" horiz-adv-x="701" 
d="M568 474c98 0 162 -76 141 -173l-14 -65c-6 -26 -33 -46 -60 -46h-202l-5 -23c-10 -45 17 -81 58 -81c29 0 56 7 76 35c41 59 128 7 74 -53c-44 -49 -106 -74 -170 -74c-51 0 -91 25 -112 75c-62 -62 -106 -75 -155 -75c-51 0 -90 16 -112 42c-17 20 -26 51 -26 82
c0 25 6 53 31 89c21 30 61 65 135 77c89 9 104 10 117 15c5 2 10 6 12 15c6 51 -12 70 -63 70c-36 0 -56 -15 -63 -29c-28 -55 -121 -36 -93 23c25 54 88 96 175 96c54 0 91 -17 121 -57c35 39 88 57 135 57zM170 102c9 -11 26 -16 57 -16c47 2 91 42 102 94l6 29
c-24 -5 -53 -9 -77 -10c-25 -2 -60 -2 -81 -30v1c-8 -11 -13 -25 -13 -41c0 -12 2 -22 6 -27zM607 301c9 45 -16 83 -58 83c-41 0 -82 -38 -92 -81l-5 -22h150z" />
    <glyph glyph-name="onequarter" unicode="&#xbc;" horiz-adv-x="835" 
d="M750 706c34 0 55 -35 29 -68l-507 -621h1c-11 -14 -30 -23 -50 -23c-32 0 -55 37 -29 69l508 621c13 15 30 22 48 22zM366 329c0 -28 -29 -51 -60 -51h-131c-25 0 -43 16 -43 37c0 28 30 50 61 50h16l37 172c-19 -9 -40 -8 -53 6c-14 15 -11 43 7 62l89 86
c11 9 26 15 42 15c25 0 45 -19 40 -44l-63 -297h16c25 0 42 -16 42 -36zM765 156c24 0 41 -16 41 -37c0 -27 -29 -50 -60 -50l-6 -31c-6 -25 -32 -44 -59 -44s-46 19 -40 44l6 31h-130c-21 0 -42 16 -42 37c0 9 6 19 13 27h-1l197 267v-1c12 16 31 24 49 24
c30 0 53 -33 31 -65l-149 -202h51l3 17c6 25 33 44 60 44s45 -19 39 -44z" />
    <glyph glyph-name="onehalf" unicode="&#xbd;" horiz-adv-x="823" 
d="M732 88c24 0 41 -16 41 -37c0 -28 -29 -51 -60 -51h-153c-32 0 -52 37 -27 67l159 188c20 23 34 42 34 63c0 12 -6 23 -17 23c-13 0 -27 -15 -30 -31c-5 -23 -32 -43 -60 -43c-23 0 -40 17 -40 37c0 61 71 124 148 124c59 0 100 -42 100 -97c0 -50 -29 -84 -63 -124l1 1
l-102 -120h69zM750 706c34 0 55 -35 29 -68l-507 -621h1c-11 -14 -30 -23 -50 -23c-32 0 -54 37 -28 69l508 621c12 15 29 22 47 22zM366 329c0 -28 -29 -51 -60 -51h-131c-25 0 -43 16 -43 37c0 28 30 50 61 50h16l37 172c-19 -9 -40 -8 -53 6c-14 15 -11 43 7 62l89 86
c11 9 26 15 43 15c24 0 44 -19 39 -44l-63 -297h16c25 0 42 -16 42 -36z" />
    <glyph glyph-name="threequarters" unicode="&#xbe;" horiz-adv-x="855" 
d="M750 706c34 0 55 -35 29 -68l-507 -621h1c-10 -14 -30 -23 -50 -23c-32 0 -54 37 -28 69l508 621c12 15 29 22 47 22zM366 329c0 -28 -29 -51 -60 -51h-131c-25 0 -42 16 -42 37c0 27 29 50 60 50h16l40 186c-44 -45 -87 11 -49 54l90 86c10 9 25 15 42 15
c24 0 45 -19 39 -44l-63 -297h16c25 0 42 -16 42 -36zM667 255l78 87h-45c-28 -64 -93 -33 -86 2l7 36c5 24 32 44 60 44h151c36 0 52 -40 25 -70l-79 -88c34 -20 49 -60 40 -103l-11 -51c-14 -64 -80 -117 -147 -117c-59 0 -101 44 -101 98c0 70 97 84 97 15
c0 -14 11 -25 23 -25c13 0 32 13 35 29l11 51c3 16 -9 29 -21 29c-3 0 -3 -1 -7 -2c-48 -15 -67 24 -30 65z" />
    <glyph glyph-name="trademark" unicode="&#x2122;" horiz-adv-x="580" 
d="M664 705c20 -4 31 -20 27 -37l-57 -267c-4 -21 -27 -37 -51 -37c-23 0 -37 16 -33 37l20 93c-28 -64 -48 -82 -71 -82c-26 0 -32 23 -38 80l-19 -91c-5 -21 -25 -37 -49 -37s-39 16 -35 37l57 267c4 17 21 33 42 37c22 4 42 -5 44 -22l24 -145c28 45 58 100 85 144
c12 19 35 28 54 23zM354 706c21 0 36 -13 36 -32c0 -24 -25 -43 -52 -43h-33l-49 -230c-4 -21 -27 -37 -51 -37s-40 16 -36 37l49 230h-32c-22 0 -37 13 -37 31c0 25 26 44 53 44h152z" />
    <glyph glyph-name="AE" unicode="&#xc6;" horiz-adv-x="773" 
d="M710 92c25 0 43 -17 43 -39c0 -29 -31 -53 -62 -53h-278c-29 0 -49 20 -44 46l25 114h-198c-24 -44 -51 -91 -75 -135c-11 -19 -35 -31 -58 -31c-32 0 -50 31 -34 61l344 626v-1c9 19 32 32 55 32h411c25 0 43 -17 43 -39c0 -28 -31 -53 -63 -53h-224l-46 -218h196
c26 0 43 -18 43 -39c0 -29 -30 -53 -62 -53h-196l-47 -218h227zM245 253h168l78 367h-43z" />
    <glyph glyph-name="OE" unicode="&#x152;" horiz-adv-x="786" 
d="M724 92c25 0 43 -17 43 -39c0 -29 -32 -53 -63 -53h-278c-23 0 -39 12 -44 28c-33 -20 -69 -35 -116 -35c-116 0 -193 81 -169 193l72 341c24 113 135 190 251 190c48 0 77 -14 101 -34c12 18 34 29 57 29h275c25 0 43 -17 43 -39c0 -29 -30 -53 -63 -53h-224l-41 -192
h196c26 0 44 -18 44 -39c0 -29 -31 -53 -63 -53h-196l-52 -244h227zM286 86c59 0 116 48 129 108l68 322c13 62 -24 109 -83 109c-58 0 -114 -36 -127 -98l-72 -341c-13 -61 27 -100 85 -100z" />
    <glyph glyph-name="copyright" unicode="&#xa9;" horiz-adv-x="850" 
d="M519 490c-24 0 -49 -23 -54 -49l-40 -184c-5 -27 10 -50 34 -50c22 0 46 20 53 44c7 25 36 43 64 40c23 -3 37 -26 34 -47c-24 -66 -97 -124 -170 -124c-79 0 -130 61 -114 137l40 184c16 76 93 137 172 137c68 0 122 -55 116 -124c-5 -21 -29 -46 -54 -48
c-29 -3 -50 15 -47 39c4 26 -12 45 -34 45zM797 599c39 -50 60 -122 60 -191c0 -118 -64 -224 -166 -309c-82 -69 -180 -105 -277 -105s-182 36 -233 105c-40 50 -60 122 -60 190c0 116 61 223 166 310c81 67 180 104 277 104s180 -37 233 -104zM432 82
c162 0 324 145 324 313c0 123 -86 221 -210 221c-163 0 -324 -146 -324 -314c0 -122 85 -220 210 -220z" />
    <glyph glyph-name="registered" unicode="&#xae;" horiz-adv-x="846" 
d="M658 436c0 -53 -39 -98 -82 -125l28 -113c2 -26 -26 -58 -58 -58c-22 0 -39 11 -42 30l-27 128h-27l-24 -115c-5 -24 -31 -43 -58 -43c-28 0 -46 19 -41 43l67 316c5 25 31 44 59 44h96c64 0 109 -47 109 -107zM483 459l-18 -86h48c48 0 67 83 18 86h-48zM803 599
c39 -49 59 -121 59 -190c0 -117 -62 -224 -165 -310c-82 -69 -180 -105 -277 -105s-182 36 -233 105c-40 50 -60 122 -60 190c0 116 61 223 166 310c81 67 180 104 277 104s180 -37 233 -104zM438 82c162 0 323 145 323 313c0 124 -85 221 -209 221
c-163 0 -324 -146 -324 -314c0 -122 85 -220 210 -220z" />
    <glyph glyph-name="Oslash" unicode="&#xd8;" horiz-adv-x="590" 
d="M659 761c22 -12 24 -40 9 -62l-63 -88c11 -29 12 -61 4 -97l-67 -316c-24 -113 -137 -204 -253 -204c-40 0 -77 12 -105 30l-37 -52v1c-15 -22 -53 -36 -75 -20l1 -1c-21 12 -25 39 -9 62l63 88c-10 29 -12 61 -5 96l67 316c24 113 138 204 254 204c41 0 77 -12 105 -30
l37 52v-1c15 25 50 36 74 22zM293 514l-55 -258l247 345c-16 14 -39 25 -62 25c-59 0 -117 -51 -130 -112zM225 193l-32 1l45 62zM308 86c58 0 118 51 131 112l55 257l-247 -344c16 -14 36 -25 61 -25zM507 520l32 -1l-45 -64z" />
    <glyph glyph-name="daggerdbl" unicode="&#x2021;" horiz-adv-x="421" 
d="M389 283c24 0 42 -17 42 -39c0 -29 -30 -53 -62 -53h-73l-32 -151c-5 -26 -33 -46 -60 -46c-29 0 -47 20 -42 46l32 151h-72c-25 0 -42 17 -42 39c0 29 30 53 62 53h72l20 95h-72c-25 0 -42 17 -42 39c0 27 30 51 61 51h72l41 193c5 25 33 45 62 45c27 0 45 -20 40 -45
l-41 -193h73c25 0 43 -17 43 -38c0 -28 -31 -52 -62 -52h-73l-20 -95h73z" />
    <glyph glyph-name="questiondown" unicode="&#xbf;" horiz-adv-x="411" 
d="M291 351c-35 0 -60 26 -60 56c0 40 44 74 87 74c33 0 57 -24 57 -54c0 -39 -42 -76 -84 -76zM47 -177c-20 25 -31 62 -31 96c0 85 67 142 123 193c32 29 60 56 67 88l13 62c5 25 32 45 61 45c28 0 47 -20 42 -45l-13 -62c-14 -63 -65 -109 -108 -148h1
c-43 -38 -82 -73 -82 -121c0 -35 24 -72 65 -72c45 0 91 40 101 88c5 25 31 45 60 45c26 0 43 -17 43 -38c0 -89 -108 -185 -223 -185c-50 0 -91 19 -119 54z" />
    <glyph glyph-name="question" unicode="?" horiz-adv-x="417" 
d="M214 124c35 0 59 -26 59 -56c0 -40 -44 -74 -87 -74c-33 0 -56 24 -56 54c0 39 42 76 84 76zM458 652c20 -25 31 -62 31 -96c0 -85 -67 -142 -123 -193c-32 -29 -60 -57 -67 -88l-13 -62c-5 -25 -33 -45 -62 -45c-28 0 -46 20 -41 45l13 62c14 63 64 109 108 148h-1
c43 38 82 73 82 121c0 35 -24 72 -65 72c-45 0 -91 -40 -101 -88c-5 -25 -32 -45 -61 -45c-25 0 -42 17 -42 38c0 89 108 185 223 185c50 0 91 -19 119 -54z" />
    <glyph glyph-name="ellipsis" unicode="&#x2026;" horiz-adv-x="589" 
d="M517 124c35 0 60 -25 60 -56c0 -40 -44 -74 -87 -74c-34 0 -57 24 -57 54c0 40 42 76 84 76zM113 124c35 0 60 -25 60 -56c0 -40 -43 -74 -87 -74c-34 0 -57 24 -57 54c0 40 41 76 84 76zM315 124c34 0 60 -25 60 -56c0 -40 -44 -74 -87 -74c-34 0 -57 24 -57 54
c0 40 41 76 84 76z" />
    <glyph glyph-name="dieresis" unicode="&#xa8;" horiz-adv-x="385" 
d="M243 706c82 0 59 -116 -25 -116c-82 0 -55 116 25 116zM429 706c82 0 59 -116 -25 -116c-82 0 -55 116 25 116z" />
    <glyph glyph-name="semicolon" unicode=";" horiz-adv-x="193" 
d="M157 394c35 0 59 -24 59 -55c0 -41 -42 -74 -86 -74c-33 0 -57 23 -57 53c0 41 42 76 84 76zM153 54c0 -13 -4 -25 -13 -37l1 2c0 -1 -2 -3 -3 -5l1 1c-5 -7 -20 -33 -78 -124v0c-10 -18 -30 -29 -52 -29c-32 0 -50 31 -32 63c15 26 33 52 48 78c-6 8 -10 20 -10 32
c0 38 39 73 82 73c34 0 56 -24 56 -54z" />
    <glyph glyph-name="colon" unicode=":" horiz-adv-x="202" 
d="M124 124c35 0 59 -25 59 -56c0 -40 -43 -74 -86 -74c-34 0 -58 24 -58 54c0 40 43 76 85 76zM182 394c34 0 58 -24 58 -55c0 -41 -42 -74 -86 -74c-33 0 -58 23 -58 53c0 41 43 76 86 76z" />
    <glyph glyph-name="periodcentered" unicode="&#xb7;" horiz-adv-x="202" 
d="M181 394c35 0 59 -24 59 -55c0 -41 -43 -74 -86 -74c-34 0 -58 23 -58 53c0 41 43 76 85 76z" />
    <glyph glyph-name="twosuperior" unicode="&#xb2;" horiz-adv-x="367" 
d="M342 365c61 0 45 -87 -18 -87h-163c-36 0 -50 34 -30 64c82 97 127 146 148 170c18 21 42 49 48 78c1 3 1 13 1 7c0 -27 -77 -51 -109 -51c-22 0 -34 17 -34 36c0 62 65 124 144 124c58 0 99 -42 99 -97c0 -50 -29 -85 -63 -123l-110 -121h87z" />
    <glyph glyph-name="threesuperior" unicode="&#xb3;" horiz-adv-x="371" 
d="M242 532l77 87h-44c-28 -64 -93 -33 -86 2l7 36c5 24 32 44 60 44h151c36 0 52 -40 25 -70l-79 -88c34 -20 49 -60 40 -103l-11 -51c-14 -64 -79 -117 -146 -117c-60 0 -102 44 -102 98c0 70 97 84 97 15c0 -14 11 -25 23 -25c13 0 33 13 36 29l10 51c3 16 -9 29 -21 29
c-3 0 -3 -1 -7 -2c-48 -15 -67 24 -30 65z" />
    <glyph glyph-name="onesuperior" unicode="&#xb9;" horiz-adv-x="352" 
d="M360 329c0 -28 -29 -51 -60 -51h-131c-25 0 -42 16 -42 37c0 27 29 50 60 50h16l40 190c-47 -49 -87 6 -49 50l90 86c10 9 25 15 42 15c24 0 45 -19 39 -44l-63 -297h16c25 0 42 -16 42 -36z" />
    <glyph glyph-name="endash" unicode="&#x2013;" horiz-adv-x="533" 
d="M524 334c63 0 48 -87 -19 -90h-374c-64 0 -49 87 19 90h374z" />
    <glyph glyph-name="emdash" unicode="&#x2014;" horiz-adv-x="745" 
d="M761 304c0 -28 -30 -52 -62 -52h-565c-24 0 -42 17 -42 38c0 28 30 52 61 52h565c25 0 43 -17 43 -38z" />
    <glyph glyph-name="plusminus" unicode="&#xb1;" horiz-adv-x="431" 
d="M357 11c51 0 68 79 18 82h-281c-51 0 -71 -79 -18 -82h281zM405 335c25 0 42 -17 42 -39c0 -27 -30 -51 -61 -51h-73l-16 -78c-6 -26 -33 -46 -61 -46s-47 20 -41 46l16 78h-72c-26 0 -42 17 -42 37c0 29 29 53 61 53h72l17 78c5 26 33 46 61 46s46 -20 41 -46l-17 -78
h73z" />
    <glyph glyph-name="equal" unicode="=" horiz-adv-x="440" 
d="M461 386c0 -28 -29 -51 -62 -51h-226c-26 0 -43 16 -43 37c0 29 30 53 62 53h226c26 0 43 -17 43 -39zM430 237c0 -27 -30 -51 -63 -51h-226c-25 0 -43 17 -43 38c0 28 30 52 63 52h226c25 0 43 -17 43 -39z" />
    <glyph glyph-name="perthousand" unicode="&#x2030;" horiz-adv-x="976" 
d="M631 706c32 0 55 -33 33 -65l-447 -621c-12 -15 -33 -26 -51 -26c-33 0 -56 33 -32 66l446 621c12 17 32 25 51 25zM443 593c0 -86 -85 -160 -173 -160c-68 0 -116 50 -116 114c0 86 86 159 174 159c68 0 115 -50 115 -113zM249 559c0 -25 16 -45 39 -45
c31 0 62 31 62 67c0 25 -16 45 -39 45c-31 0 -62 -31 -62 -67zM535 267c68 0 116 -49 116 -114c0 -86 -86 -159 -174 -159c-68 0 -116 50 -116 114c0 87 86 159 174 159zM494 73c32 0 64 33 64 68c0 26 -16 47 -40 47c-32 0 -64 -32 -64 -68c0 -25 16 -47 40 -47zM855 267
c68 0 116 -49 116 -114c0 -86 -86 -159 -174 -159c-68 0 -116 50 -116 114c0 87 86 159 174 159zM814 73c32 0 64 33 64 68c0 26 -16 47 -40 47c-32 0 -64 -32 -64 -68c0 -25 16 -47 40 -47z" />
    <glyph glyph-name="brokenbar" unicode="&#xa6;" horiz-adv-x="241" 
d="M209 432c-27 0 -46 20 -40 46l39 184c5 25 32 45 59 45c29 0 48 -20 43 -45l-39 -184c-6 -26 -33 -46 -62 -46zM116 -6c-27 0 -46 20 -40 46l39 184c5 25 32 45 59 45c29 0 48 -20 43 -45l-39 -184c-6 -26 -33 -46 -62 -46z" />
    <glyph glyph-name="parenright" unicode=")" horiz-adv-x="308" 
d="M58 -30c42 0 84 37 93 82l125 589c10 44 -16 81 -58 81c-26 0 -43 17 -43 38c0 30 29 54 62 54c98 0 162 -78 141 -173l-125 -589c-20 -96 -117 -173 -215 -173c-25 0 -42 17 -42 38c0 29 29 53 62 53z" />
    <glyph glyph-name="backslash" unicode="\" horiz-adv-x="415" 
d="M137 641c-8 27 22 65 60 65c18 0 35 -10 41 -25l182 -621c7 -28 -22 -66 -60 -66c-18 0 -35 11 -41 26z" />
    <glyph glyph-name="bracketleft" unicode="[" horiz-adv-x="307" 
d="M424 722c0 -28 -30 -52 -62 -52h-35l-149 -700h35c25 0 43 -16 43 -38c0 -28 -30 -52 -62 -52h-85c-29 0 -48 20 -43 45l168 790c5 23 31 43 59 45h88c25 0 43 -17 43 -38z" />
    <glyph glyph-name="bracketright" unicode="]" horiz-adv-x="307" 
d="M179 702c0 28 30 52 61 52h86c29 -2 46 -22 42 -45l-167 -783c-5 -26 -33 -46 -61 -46h-86c-24 0 -42 17 -42 38c0 29 30 52 61 52h35l148 694h-35c-25 0 -42 17 -42 38z" />
    <glyph glyph-name="florin" unicode="&#x192;" horiz-adv-x="306" 
d="M314 468c25 0 42 -17 42 -38c0 -29 -30 -53 -61 -53h-34l-74 -348c-18 -82 -100 -148 -185 -148c-25 0 -42 17 -42 38c0 28 29 52 61 52c28 0 57 26 64 58l74 348h-19c-25 0 -43 17 -43 39c0 28 31 52 62 52h19l19 91c18 82 101 147 185 147c24 0 42 -17 42 -38
c0 -28 -31 -52 -62 -52c-28 0 -56 -27 -63 -57l-19 -91h34z" />
    <glyph glyph-name="paragraph" unicode="&#xb6;" horiz-adv-x="532" 
d="M566 701c28 0 47 -20 41 -46l-130 -616c-6 -25 -33 -45 -61 -45c-29 0 -48 20 -42 45l121 571h-56l-121 -571c-6 -25 -33 -45 -61 -45s-47 20 -41 45l66 311h-17c-88 0 -148 64 -148 146c0 110 110 205 222 205h227z" />
    <glyph glyph-name="Egrave" unicode="&#xc8;" horiz-adv-x="474" 
d="M419 93c25 0 43 -17 43 -39c0 -30 -31 -54 -63 -54h-279c-28 0 -47 20 -41 46l132 621c5 25 32 45 60 45h276c26 0 43 -17 43 -38c0 -29 -30 -54 -62 -54h-223l-41 -191h195c25 0 43 -17 43 -40c0 -28 -30 -52 -63 -52h-195l-51 -244h226zM528 800v1
c-16 -24 -51 -33 -74 -21c-41 22 -85 47 -126 68c-19 12 -27 39 -10 62c17 24 53 32 74 21c41 -22 85 -47 126 -68c21 -13 25 -42 10 -63z" />
    <glyph glyph-name="Eacute" unicode="&#xc9;" horiz-adv-x="474" 
d="M419 93c25 0 43 -17 43 -39c0 -30 -31 -54 -63 -54h-279c-28 0 -47 20 -41 46l132 621c5 25 32 45 60 45h276c26 0 43 -17 43 -38c0 -29 -30 -54 -62 -54h-223l-41 -191h195c25 0 43 -17 43 -40c0 -28 -30 -52 -63 -52h-195l-51 -244h226zM311 798v-1c-7 21 10 50 37 63
l154 68c26 11 57 2 66 -21c6 -23 -12 -50 -37 -62l-155 -68c-29 -12 -60 -3 -65 21z" />
    <glyph glyph-name="Ecircumflex" unicode="&#xca;" horiz-adv-x="474" 
d="M419 93c25 0 43 -17 43 -39c0 -30 -31 -54 -63 -54h-279c-28 0 -47 20 -41 46l132 621c5 25 32 45 60 45h276c26 0 43 -17 43 -38c0 -29 -30 -54 -62 -54h-223l-41 -191h195c26 0 43 -17 43 -40c0 -28 -30 -52 -63 -52h-195l-51 -244h226zM315 848l91 68
c38 26 65 21 85 7l69 -75c35 -39 -29 -100 -74 -65l-51 57l-77 -60c-54 -39 -96 22 -43 68z" />
    <glyph glyph-name="Edieresis" unicode="&#xcb;" horiz-adv-x="474" 
d="M419 93c25 0 43 -17 43 -39c0 -30 -31 -54 -63 -54h-279c-28 0 -47 20 -41 46l132 621c5 25 32 45 60 45h276c26 0 43 -17 43 -38c0 -29 -30 -54 -62 -54h-223l-41 -191h195c25 0 43 -17 43 -40c0 -28 -30 -52 -63 -52h-195l-51 -244h226zM338 880c30 0 52 -22 52 -49
c0 -34 -38 -64 -76 -64c-29 0 -49 22 -49 47c0 35 36 66 73 66zM539 880c29 0 51 -22 51 -48c0 -35 -39 -65 -75 -65c-29 0 -50 22 -50 48c0 34 37 65 74 65z" />
    <glyph glyph-name="Igrave" unicode="&#xcc;" horiz-adv-x="436" 
d="M498 796l1 1c-17 -24 -51 -33 -75 -21c-40 22 -85 47 -125 68c-21 12 -27 39 -11 62c18 24 53 32 74 21c41 -22 85 -47 126 -68c22 -13 26 -42 10 -63zM355 93c26 0 44 -17 44 -39c0 -30 -31 -54 -64 -54h-241c-26 0 -44 17 -44 39c0 30 30 54 64 54h69l112 526h-69
c-27 0 -44 17 -44 40c0 29 30 53 64 53h241c25 0 44 -17 44 -39c0 -29 -32 -54 -64 -54h-68l-112 -526h68z" />
    <glyph glyph-name="Iacute" unicode="&#xcd;" horiz-adv-x="436" 
d="M264 793v-1c-7 21 9 50 37 63l154 68c27 11 58 2 66 -21c6 -23 -12 -50 -37 -62l-155 -68c-28 -12 -59 -3 -65 21zM355 93c26 0 44 -17 44 -39c0 -30 -31 -54 -64 -54h-241c-26 0 -44 17 -44 39c0 30 30 54 64 54h69l112 526h-69c-27 0 -44 17 -44 40c0 29 30 53 64 53
h241c25 0 44 -17 44 -39c0 -29 -32 -54 -64 -54h-68l-112 -526h68z" />
    <glyph glyph-name="Icircumflex" unicode="&#xce;" horiz-adv-x="436" 
d="M273 844l104 78c8 6 22 10 35 10c12 0 25 -5 36 -13l69 -75c26 -28 -14 -81 -52 -81c-12 0 -25 5 -31 12l-45 47c-21 -16 -41 -31 -63 -47c-10 -7 -24 -12 -38 -12c-27 0 -42 20 -42 40c0 15 15 31 27 41zM355 93c26 0 44 -17 44 -39c0 -30 -31 -54 -64 -54h-241
c-26 0 -44 17 -44 39c0 30 30 54 64 54h69l112 526h-69c-27 0 -44 17 -44 40c0 29 30 53 64 53h241c25 0 44 -17 44 -39c0 -29 -32 -54 -64 -54h-68l-112 -526h68z" />
    <glyph glyph-name="Idieresis" unicode="&#xcf;" horiz-adv-x="436" 
d="M310 876c33 0 57 -25 57 -55c0 -37 -42 -71 -83 -71c-33 0 -56 24 -56 53c0 38 41 73 82 73zM490 876c34 0 58 -25 58 -55c0 -37 -42 -71 -84 -71c-32 0 -55 24 -55 53c0 38 41 73 81 73zM355 93c26 0 44 -17 44 -39c0 -30 -31 -54 -64 -54h-241c-26 0 -44 17 -44 39
c0 30 30 54 64 54h69l112 526h-69c-27 0 -44 17 -44 40c0 29 30 53 64 53h241c25 0 44 -17 44 -39c0 -29 -32 -54 -64 -54h-68l-112 -526h68z" />
    <glyph glyph-name="Ograve" unicode="&#xd2;" horiz-adv-x="538" 
d="M264 -6c-116 0 -191 91 -167 204l67 316c24 112 138 204 254 204s190 -92 166 -204l-67 -316c-24 -113 -137 -204 -253 -204zM398 626c-59 0 -118 -51 -131 -112l-67 -316c-13 -61 24 -112 83 -112c58 0 117 51 130 112l67 316c13 61 -24 112 -82 112zM545 786v1
c-16 -24 -51 -33 -74 -21c-41 22 -85 47 -126 68c-20 12 -26 39 -10 62c18 24 53 32 74 21c41 -22 85 -47 125 -68c23 -13 26 -42 11 -63z" />
    <glyph glyph-name="Oacute" unicode="&#xd3;" horiz-adv-x="538" 
d="M264 -6c-116 0 -191 91 -167 204l67 316c24 112 138 204 254 204s190 -92 166 -204l-67 -316c-24 -113 -137 -204 -253 -204zM398 626c-59 0 -118 -51 -131 -112l-67 -316c-13 -61 24 -112 83 -112c58 0 117 51 130 112l67 316c13 61 -24 112 -82 112zM316 785v-1
c-7 21 10 50 37 63l154 68c27 11 58 2 66 -21c6 -23 -12 -50 -37 -62l-155 -68c-28 -12 -59 -3 -65 21z" />
    <glyph glyph-name="Ydieresis" unicode="&#x178;" horiz-adv-x="476" 
d="M336 915c31 0 53 -22 53 -50c0 -36 -38 -66 -77 -66c-31 0 -51 21 -51 48c0 37 35 68 75 68zM520 915c31 0 53 -22 53 -50c0 -36 -38 -66 -77 -66c-30 0 -50 21 -50 48c0 37 36 68 74 68zM553 718c33 0 54 -33 33 -65l-238 -357l-54 -255c-6 -26 -32 -47 -61 -47
s-48 21 -42 47l54 254l-85 358c-4 28 25 65 61 65c21 0 36 -11 41 -27l63 -263l175 263c11 16 31 27 53 27z" />
    <glyph glyph-name="Ocircumflex" unicode="&#xd4;" horiz-adv-x="538" 
d="M264 -6c-116 0 -191 91 -167 204l67 316c24 112 138 204 254 204s190 -92 166 -204l-67 -316c-24 -113 -137 -204 -253 -204zM398 626c-59 0 -118 -51 -131 -112l-67 -316c-13 -61 24 -112 83 -112c58 0 117 51 130 112l67 316c13 61 -24 112 -82 112zM328 848l100 74
c9 6 21 10 35 10c10 0 23 -5 32 -12l67 -72c24 -27 -13 -78 -49 -78c-12 0 -23 5 -31 12l-41 45c-21 -15 -42 -30 -62 -45c-9 -7 -22 -12 -34 -12c-27 0 -42 19 -42 38c0 15 14 30 25 40z" />
    <glyph glyph-name="Odieresis" unicode="&#xd6;" horiz-adv-x="538" 
d="M354 892c30 0 52 -23 52 -51c0 -35 -40 -67 -78 -67c-31 0 -52 23 -52 49c0 36 39 69 78 69zM548 892c30 0 53 -24 53 -51c0 -36 -41 -67 -79 -67c-32 0 -52 22 -52 49c0 36 37 69 78 69zM264 -6c-116 0 -191 91 -167 204l67 316c24 112 138 204 254 204
s190 -92 166 -204l-67 -316c-24 -113 -137 -204 -253 -204zM398 626c-59 0 -118 -51 -131 -112l-67 -316c-13 -61 24 -112 83 -112c58 0 117 51 130 112l67 316c13 61 -24 112 -82 112z" />
    <glyph glyph-name="Ugrave" unicode="&#xd9;" horiz-adv-x="568" 
d="M561 776v1c-16 -24 -51 -33 -75 -21c-41 22 -85 47 -125 68c-21 12 -27 39 -11 62c18 24 53 32 74 21c40 -22 86 -47 126 -68c21 -13 26 -42 11 -63zM277 -6c-116 0 -190 92 -166 204l101 474c5 26 33 46 62 46c28 0 47 -20 42 -46l-101 -474c-13 -61 24 -111 82 -111
c59 0 118 50 131 111l101 474c5 26 32 46 61 46c28 0 47 -20 42 -46l-101 -474c-24 -112 -137 -204 -254 -204z" />
    <glyph glyph-name="Uacute" unicode="&#xda;" horiz-adv-x="568" 
d="M327 777v-1c-7 21 9 50 37 63l155 68c26 11 57 2 65 -21c6 -23 -12 -50 -37 -62l-155 -68c-28 -12 -59 -3 -65 21zM277 -6c-116 0 -190 92 -166 204l101 474c5 26 33 46 62 46c28 0 47 -20 42 -46l-101 -474c-13 -61 24 -111 82 -111c59 0 118 50 131 111l101 474
c5 26 32 46 61 46c28 0 47 -20 42 -46l-101 -474c-24 -112 -137 -204 -254 -204z" />
    <glyph glyph-name="Ucircumflex" unicode="&#xdb;" horiz-adv-x="568" 
d="M333 831l106 78c8 6 22 10 35 10c12 0 25 -5 35 -13l69 -75c26 -28 -13 -81 -52 -81c-11 0 -24 5 -30 12l-45 47c-22 -16 -41 -32 -63 -47c-11 -8 -24 -12 -38 -12c-28 0 -42 20 -42 40c0 15 14 31 25 41zM277 -6c-116 0 -190 92 -166 204l101 474c5 26 33 46 62 46
c28 0 47 -20 42 -46l-101 -474c-13 -61 24 -111 82 -111c59 0 118 50 131 111l101 474c5 26 32 46 61 46c28 0 47 -20 42 -46l-101 -474c-24 -112 -137 -204 -254 -204z" />
    <glyph glyph-name="Udieresis" unicode="&#xdc;" horiz-adv-x="568" 
d="M379 893c31 0 53 -23 53 -51c0 -35 -40 -67 -79 -67c-30 0 -51 23 -51 49c0 36 39 69 77 69zM576 893c32 0 54 -23 54 -51c0 -35 -40 -67 -80 -67c-29 0 -50 23 -50 49c0 36 39 69 76 69zM277 -6c-116 0 -190 92 -166 204l101 474c5 26 33 46 62 46c28 0 47 -20 42 -46
l-101 -474c-13 -61 24 -111 82 -111c59 0 118 50 131 111l101 474c5 26 32 46 61 46c28 0 47 -20 42 -46l-101 -474c-24 -112 -137 -204 -254 -204z" />
    <glyph glyph-name="Yacute" unicode="&#xdd;" horiz-adv-x="476" 
d="M320 780v-1c-8 21 9 50 36 63l156 68c26 11 57 2 64 -21s-11 -50 -36 -62l-154 -68c-29 -12 -60 -3 -66 21zM553 718c33 0 54 -33 33 -65l-238 -357l-54 -255c-6 -26 -32 -47 -61 -47s-48 21 -42 47l54 254l-85 358c-4 28 25 65 61 65c21 0 37 -11 41 -27l63 -263
l175 263c12 16 31 27 53 27z" />
    <glyph glyph-name="igrave" unicode="&#xec;" horiz-adv-x="262" 
d="M231 474c27 0 46 -20 40 -46l-82 -388c-6 -26 -33 -46 -60 -46c-29 0 -48 20 -42 46l82 388c6 26 33 46 62 46zM351 567c-16 -23 -47 -31 -70 -20l-116 64c-20 11 -25 35 -10 55c17 23 49 35 70 22l117 -63c18 -11 22 -39 9 -58z" />
    <glyph glyph-name="iacute" unicode="&#xed;" horiz-adv-x="262" 
d="M234 474c27 0 46 -20 40 -46l-82 -388c-6 -26 -33 -46 -60 -46c-29 0 -48 20 -42 46l82 388c6 26 33 46 62 46zM138 573v-1c-7 21 10 48 34 60l147 64c25 10 57 3 62 -19v1c7 -22 -10 -50 -35 -60l-145 -65c-29 -11 -59 -3 -63 20z" />
    <glyph glyph-name="icircumflex" unicode="&#xee;" horiz-adv-x="262" 
d="M228 474c27 0 46 -20 40 -46l-82 -388c-6 -26 -33 -46 -60 -46c-29 0 -48 20 -42 46l82 388c6 26 33 46 62 46zM145 623l98 73c8 6 22 10 34 10s24 -5 33 -12l64 -71h-1c27 -25 -10 -76 -47 -76c-12 0 -23 3 -30 11l-41 44c-20 -16 -39 -29 -59 -44
c-10 -7 -25 -11 -35 -11c-43 0 -50 52 -16 76z" />
    <glyph glyph-name="idieresis" unicode="&#xef;" horiz-adv-x="262" 
d="M229 474c27 0 46 -20 40 -46l-82 -388c-6 -26 -33 -46 -60 -46c-29 0 -48 20 -42 46l82 388c6 26 33 46 62 46zM199 694c29 0 51 -21 51 -47c0 -33 -39 -63 -75 -63c-29 0 -48 22 -48 47c0 33 35 63 72 63zM354 694c29 0 50 -21 50 -47c0 -33 -37 -63 -74 -63
c-28 0 -49 22 -49 47c0 34 37 63 73 63z" />
    <glyph glyph-name="thorn" unicode="&#xfe;" horiz-adv-x="505" 
d="M276 706c28 0 46 -20 41 -44l-38 -182c25 13 56 21 89 21c102 0 168 -80 147 -180l-31 -147c-22 -100 -122 -180 -224 -180c-32 0 -60 8 -80 20l-39 -181c-5 -24 -32 -44 -60 -44s-47 20 -42 44l176 829c5 24 33 44 61 44zM245 321l-31 -147c-13 -60 19 -89 66 -89
c45 0 91 41 102 89l31 147c10 49 -19 89 -64 89c-47 0 -91 -29 -104 -89z" />
    <glyph glyph-name="Thorn" unicode="&#xde;" horiz-adv-x="544" 
d="M407 556c97 0 164 -71 164 -162c0 -123 -122 -229 -247 -229h-111l-27 -125c-5 -25 -32 -46 -61 -46c-28 0 -48 21 -43 46l135 632c5 26 33 46 61 46c29 0 48 -20 43 -46l-25 -116h111zM343 257c60 0 123 58 123 122c0 48 -33 85 -79 85h-111l-44 -207h111z" />
    <glyph glyph-name="braceleft" unicode="{" horiz-adv-x="364" 
d="M171 357c28 0 42 32 47 59l41 191c8 37 32 75 59 101c30 29 74 45 115 45c26 0 44 -17 44 -38c0 -28 -31 -52 -63 -52c-27 0 -46 -29 -52 -56l-41 -191c-8 -38 -26 -72 -50 -95l-8 -7c1 0 1 -1 2 -1c17 -27 21 -63 12 -106l-38 -179c-6 -28 1 -57 28 -57
c26 0 43 -17 43 -38c0 -29 -31 -53 -63 -53c-43 0 -77 17 -96 46c-17 26 -23 62 -15 98l39 184c4 18 13 63 -22 63c-24 0 -41 14 -41 36c0 29 28 50 59 50z" />
    <glyph glyph-name="braceright" unicode="}" horiz-adv-x="363" 
d="M336 364c25 0 42 -14 42 -36c0 -29 -29 -50 -60 -50c-35 0 -46 -45 -50 -63l-40 -191c-8 -36 -29 -72 -57 -98c-31 -29 -73 -46 -116 -46c-25 0 -42 17 -42 39c0 28 31 52 62 52c28 0 46 29 52 57l39 186c9 43 29 78 52 100l7 6c-1 2 -4 7 -4 8c-14 23 -18 57 -10 95
l38 182c6 27 0 56 -28 56c-24 0 -42 17 -42 39c0 27 30 51 61 51c41 0 78 -17 96 -45c17 -27 24 -64 16 -101l-38 -182c-6 -27 -5 -59 22 -59z" />
    <glyph glyph-name="bullet" unicode="&#x2022;" horiz-adv-x="317" 
d="M112 312c0 67 64 123 134 123c54 0 92 -38 92 -88c0 -67 -66 -122 -136 -122c-54 0 -90 38 -90 87z" />
    <glyph glyph-name="ordmasculine" unicode="&#xba;" horiz-adv-x="290" 
 />
    <glyph glyph-name="divide" unicode="&#xf7;" horiz-adv-x="411" 
d="M254 234c34 0 58 -24 58 -55c0 -41 -42 -74 -85 -74c-34 0 -58 23 -58 53c0 41 42 76 85 76zM316 523c34 0 58 -24 58 -55c0 -40 -43 -74 -86 -74c-34 0 -58 24 -58 54c0 40 44 75 86 75zM446 320c0 -28 -30 -52 -62 -52h-247c-24 0 -42 17 -42 38c0 29 30 53 62 53h247
c24 0 42 -17 42 -39z" />
    <glyph glyph-name="underscore" unicode="_" horiz-adv-x="654" 
d="M583 -102c0 -28 -30 -52 -63 -52h-468c-25 0 -42 17 -42 38c0 28 29 52 62 52h468c25 0 43 -17 43 -38z" />
    <glyph glyph-name="space" unicode=" " horiz-adv-x="220" 
 />
    <glyph glyph-name="A" unicode="A" horiz-adv-x="519" 
d="M508 53h1c1 -27 -28 -59 -64 -59c-22 0 -38 13 -41 33l-14 134h-202c-23 -46 -44 -89 -68 -134c-10 -19 -34 -33 -57 -33c-30 0 -54 29 -36 60l-1 -1l325 632c11 19 35 33 58 33c22 0 39 -14 42 -33zM235 253h148l-14 276z" />
    <glyph glyph-name="zero" unicode="0" 
d="M231 -6c-102 0 -167 80 -146 179l76 355c20 98 119 178 221 178c101 0 167 -80 147 -178l-76 -355c-21 -99 -121 -179 -222 -179zM363 616c-45 0 -90 -40 -100 -88l-76 -355c-10 -48 19 -87 64 -87s90 39 100 87l76 355c10 48 -19 88 -64 88z" />
    <glyph glyph-name="asciicircum" unicode="^" horiz-adv-x="457" 
d="M123 484l201 208l-2 -1c7 10 22 17 37 17c16 0 28 -7 32 -17l-2 1l112 -208c18 -35 -19 -69 -51 -69c-15 0 -29 6 -35 18h1l-81 154l-146 -156c-12 -11 -27 -18 -43 -18c-31 0 -51 39 -23 71z" />
    <glyph glyph-name="Scaron" unicode="&#x160;" horiz-adv-x="483" 
d="M235 -6c-113 0 -172 72 -172 150c0 50 33 74 64 74c26 0 42 -17 42 -60c0 -38 27 -72 85 -72c74 0 129 45 129 118c0 31 -12 63 -50 92l-24 16c-58 37 -74 49 -90 61c-45 35 -72 79 -72 136c0 129 119 209 240 209c97 0 165 -54 165 -141c0 -52 -33 -76 -65 -76
c-26 0 -41 17 -41 62c0 37 -24 63 -79 63c-74 0 -115 -53 -115 -104c0 -18 8 -44 38 -70c14 -12 50 -39 111 -78c55 -37 86 -95 86 -161c0 -140 -131 -219 -252 -219zM539 851l-101 -76c-10 -7 -23 -10 -34 -10c-10 0 -22 3 -29 10l-71 76c-24 26 12 73 48 73
c12 0 22 -4 29 -10l44 -51l66 51c9 6 21 10 34 10c39 0 44 -49 14 -73z" />
    <glyph glyph-name="zcaron" unicode="&#x17e;" horiz-adv-x="393" 
d="M332 97c64 0 48 -92 -21 -95h-238c-35 0 -55 36 -16 84l256 292h-158c-63 0 -46 89 20 92h235c38 0 54 -32 29 -69l-268 -304h161zM444 634l-92 -69c-9 -6 -20 -9 -30 -9c-9 0 -20 3 -26 9l-65 69c-21 23 11 65 44 65c11 0 20 -3 26 -9l40 -45l59 45c8 6 19 9 31 9
c35 0 40 -44 13 -65z" />
    <glyph glyph-name="Zcaron" unicode="&#x17d;" horiz-adv-x="468" 
d="M389 0h-316c-38 0 -53 39 -32 68v-1l402 552h-223c-25 0 -43 17 -43 40c0 29 31 53 63 53h304c39 0 51 -39 31 -69l-401 -550h234c25 0 43 -17 43 -39c0 -30 -31 -54 -62 -54zM549 851l-101 -76c-10 -7 -23 -10 -34 -10c-10 0 -22 3 -29 10l-71 76c-24 26 12 73 48 73
c12 0 22 -4 29 -10l44 -51l66 51c9 6 21 10 34 10c39 0 44 -49 14 -73z" />
    <glyph glyph-name="exclamdown" unicode="&#xa1;" horiz-adv-x="282" 
d="M213 355c-34 0 -59 25 -59 56c0 40 44 73 87 73c33 0 57 -23 57 -53c0 -40 -42 -76 -85 -76zM198 280c27 0 45 -20 40 -46l-89 -416c-5 -25 -32 -45 -59 -45c-29 0 -48 20 -43 45l89 416c5 26 33 46 62 46z" />
    <glyph glyph-name="scaron" unicode="&#x161;" horiz-adv-x="410" 
d="M209 -10c-88 0 -143 22 -162 98c-18 54 83 94 98 40c9 -39 41 -51 79 -51c45 0 76 29 76 61c0 49 -100 60 -136 80c-28 16 -64 44 -64 99c0 88 91 157 195 157c68 0 119 -25 136 -74c25 -73 -91 -109 -95 -49c-2 27 -26 36 -60 36c-28 0 -75 -12 -75 -54
c0 -13 6 -24 24 -34c65 -33 180 -49 180 -145c0 -105 -104 -164 -196 -164zM443 634l-93 -70c-9 -7 -21 -10 -32 -10c-9 0 -20 3 -27 10l-65 70c-23 25 11 68 44 68c11 0 20 -3 27 -9l41 -47l61 47c8 6 19 9 32 9c36 0 40 -45 12 -68z" />
    <glyph glyph-name="Eth" unicode="&#xd0;" horiz-adv-x="539" 
d="M265 0h-144c-29 0 -48 20 -42 46l57 271h-21c-24 0 -39 16 -39 36c0 28 27 51 58 51h21l56 263c5 25 32 45 61 45h144c116 0 191 -91 167 -204l-65 -303c-24 -113 -137 -205 -253 -205zM360 367c0 -27 -28 -50 -58 -50h-63l-47 -224h93c59 0 117 50 130 112l65 303
c13 62 -24 112 -83 112h-93l-46 -216h63c23 0 39 -16 39 -37z" />
    <glyph glyph-name="guilsinglleft" unicode="&#x2039;" horiz-adv-x="332" 
d="M261 138c-12 0 -24 5 -33 12l-122 147c-6 7 -10 19 -10 28c0 12 11 28 24 38l185 146c11 8 25 13 37 13c44 0 51 -53 19 -79l-143 -113c31 -38 63 -75 94 -113c23 -29 -14 -79 -51 -79z" />
    <glyph glyph-name="guilsinglright" unicode="&#x203a;" horiz-adv-x="324" 
d="M117 138c-37 0 -53 50 -17 79l142 113l-94 113c-22 26 7 79 51 79c12 0 25 -5 32 -13l123 -146c6 -7 10 -19 10 -28c0 -12 -12 -28 -24 -38l-185 -147c-11 -7 -26 -12 -38 -12z" />
    <glyph glyph-name="eth" unicode="&#xf0;" horiz-adv-x="451" 
d="M222 -6c-99 0 -162 77 -142 173l26 119c21 99 115 163 197 163c5 0 15 0 20 -1c-7 22 -16 37 -24 63c-9 -5 -15 -8 -23 -12h1c-25 -15 -50 -9 -58 10l1 -1c-7 16 2 40 24 52l31 16c-8 21 -18 44 -26 65c-5 20 4 46 29 60c32 13 62 8 70 -17l21 -58c10 6 16 8 26 14h-2
c23 15 48 9 57 -10c7 -16 -6 -40 -23 -50c-13 -7 -21 -12 -35 -19l48 -131h-1c29 -69 30 -105 22 -144l-26 -119c-20 -96 -115 -173 -213 -173zM359 286c11 53 -22 79 -59 79c-39 0 -81 -26 -92 -79l-26 -119c-9 -45 18 -81 59 -81s83 36 92 81z" />
    <glyph glyph-name="cedilla" unicode="&#xb8;" horiz-adv-x="358" 
d="M138 -117c-40 0 -45 30 -28 60l45 75c12 19 33 29 51 29c28 0 52 -24 30 -58v1c-10 -19 -15 -25 -26 -43c30 -9 67 -35 67 -91c0 -83 -80 -151 -163 -151c-65 0 -112 37 -112 95c0 44 30 61 57 61c20 0 37 -12 37 -48c0 -20 16 -28 35 -28c26 0 53 26 53 57
c0 21 -13 41 -46 41z" />
    <glyph glyph-name="Ccedilla" unicode="&#xc7;" horiz-adv-x="508" 
d="M237 -95c-39 0 -44 30 -29 59l22 36c-95 17 -149 100 -128 200l67 314c24 112 136 204 253 204c108 0 176 -77 167 -176c-6 -22 -28 -47 -55 -50s-47 14 -47 52c0 51 -34 82 -84 82c-59 0 -118 -51 -131 -112l-67 -314c-13 -61 24 -112 83 -112c54 0 109 44 127 101
c8 26 39 44 66 41c25 -3 38 -28 34 -50c-28 -83 -103 -152 -184 -175l-23 -37c30 -8 64 -33 64 -88c0 -83 -79 -149 -158 -149c-65 0 -110 37 -110 93c0 43 30 60 55 60c20 0 37 -12 37 -47c0 -19 15 -27 34 -27c23 0 49 26 49 56c0 20 -11 39 -42 39z" />
    <glyph glyph-name="ccedilla" unicode="&#xe7;" horiz-adv-x="440" 
d="M189 -85c-37 0 -43 30 -27 57l16 28c-69 20 -114 89 -97 168l28 133c20 95 116 173 214 173c87 0 145 -63 145 -140c0 -28 -24 -54 -53 -58c-30 -4 -51 12 -51 38c0 38 -23 70 -60 70c-40 0 -83 -38 -93 -83l-28 -133c-10 -45 17 -83 57 -83c37 0 75 31 90 69
c10 25 38 42 67 38c25 -4 40 -28 31 -52c-24 -66 -89 -118 -153 -138c-8 -12 -9 -12 -17 -26c31 -7 64 -31 64 -84c0 -81 -76 -145 -154 -145c-63 0 -107 35 -107 90c0 42 29 58 54 58c19 0 36 -11 36 -46c0 -18 14 -25 33 -25c23 0 47 25 47 53c0 19 -12 38 -42 38z" />
    <glyph glyph-name="cent" unicode="&#xa2;" horiz-adv-x="440" 
d="M204 -82c-24 0 -43 20 -38 42l9 42c-71 21 -111 87 -94 166l28 133c16 77 85 144 164 165l10 46c5 22 32 42 56 42c25 0 43 -20 38 -42l-9 -44c62 -16 104 -62 104 -126c0 -28 -25 -54 -54 -58c-30 -4 -50 11 -50 40c0 21 -11 31 -22 43l-57 -267c17 12 33 30 41 52
c10 26 38 42 67 38c25 -4 40 -28 31 -52c-26 -69 -91 -121 -160 -138l-8 -40c-5 -22 -31 -42 -56 -42zM180 168c-8 -37 4 -56 21 -64l56 261c-27 -17 -42 -33 -49 -64z" />
    <glyph glyph-name="Agrave" unicode="&#xc0;" horiz-adv-x="519" 
d="M508 53h1c1 -27 -28 -59 -64 -59c-22 0 -38 13 -41 33l-14 134h-202c-23 -46 -44 -89 -68 -134c-10 -19 -34 -33 -57 -33c-30 0 -54 29 -36 60l-1 -1l325 632c11 19 35 33 58 33c22 0 39 -14 42 -33zM235 253h148l-14 276zM524 805v1c-15 -24 -50 -32 -73 -21
c-40 22 -84 47 -123 68c-20 11 -27 38 -10 60c17 23 51 31 72 20c40 -21 84 -45 124 -66c21 -13 26 -41 10 -62z" />
    <glyph glyph-name="Aacute" unicode="&#xc1;" horiz-adv-x="519" 
d="M508 53h1c1 -27 -28 -59 -64 -59c-22 0 -38 13 -41 33l-14 134h-202c-23 -46 -44 -89 -68 -134c-10 -19 -34 -33 -57 -33c-30 0 -54 29 -36 60l-1 -1l325 632c11 19 35 33 58 33c22 0 39 -14 42 -33zM235 253h148l-14 276zM364 784c-18 0 -35 9 -38 26v-1
c-8 20 10 48 35 62l141 63c27 12 57 2 64 -20s-11 -49 -35 -60l-142 -65c-8 -4 -15 -5 -25 -5z" />
    <glyph glyph-name="Acircumflex" unicode="&#xc2;" horiz-adv-x="519" 
d="M508 53h1c1 -27 -28 -59 -64 -59c-22 0 -38 13 -41 33l-14 134h-202c-23 -46 -44 -89 -68 -134c-10 -19 -34 -33 -57 -33c-30 0 -54 29 -36 60l-1 -1l325 632c11 19 35 33 58 33c22 0 39 -14 42 -33zM235 253h148l-14 276zM308 839l103 85c8 6 22 10 35 10
c11 0 24 -5 34 -13l64 -79c25 -28 -8 -74 -46 -74c-12 0 -24 4 -32 11l-41 58l-64 -58c-53 -39 -113 0 -53 60z" />
    <glyph glyph-name="Aring" unicode="&#xc5;" horiz-adv-x="519" 
d="M412 754c-50 0 -85 35 -85 82c0 62 62 114 127 114c51 0 85 -35 85 -82c0 -62 -61 -114 -127 -114zM441 887c-44 0 -60 -70 -15 -70c40 0 56 70 15 70zM508 53h1c1 -27 -28 -59 -64 -59c-22 0 -38 13 -41 33l-14 134h-202c-23 -46 -44 -89 -68 -134
c-10 -19 -34 -33 -57 -33c-30 0 -54 29 -36 60l-1 -1l325 632c11 19 35 33 58 33c22 0 39 -14 42 -33zM235 253h148l-14 276z" />
    <glyph glyph-name="Adieresis" unicode="&#xc4;" horiz-adv-x="519" 
d="M508 53h1c1 -27 -28 -59 -64 -59c-22 0 -38 13 -41 33l-14 134h-202c-23 -46 -44 -89 -68 -134c-10 -19 -34 -33 -57 -33c-30 0 -54 29 -36 60l-1 -1l325 632c11 19 35 33 58 33c22 0 39 -14 42 -33zM235 253h148l-14 276zM351 892c82 0 59 -116 -25 -116
c-82 0 -55 116 25 116zM537 892c82 0 59 -116 -25 -116c-82 0 -55 116 25 116z" />
    <glyph glyph-name="Atilde" unicode="&#xc3;" horiz-adv-x="519" 
d="M508 53h1c1 -27 -28 -59 -64 -59c-22 0 -38 13 -41 33l-14 134h-202c-23 -46 -44 -89 -68 -134c-10 -19 -34 -33 -57 -33c-30 0 -54 29 -36 60l-1 -1l325 632c11 19 35 33 58 33c22 0 39 -14 42 -33zM235 253h148l-14 276zM535 895c27 0 39 -19 39 -40
c0 -40 -44 -87 -100 -87c-24 0 -48 12 -62 23l-36 27c-2 -9 -11 -19 -18 -26c-11 -11 -21 -16 -35 -16c-27 0 -39 19 -39 40c0 39 42 86 100 86c27 0 48 -11 62 -22c22 -17 27 -22 35 -26c3 8 8 17 17 26c7 7 19 15 37 15z" />
    <glyph glyph-name="Ntilde" unicode="&#xd1;" horiz-adv-x="571" 
d="M439 -6c-18 0 -36 11 -41 26l-132 462l-84 -441c-6 -26 -33 -47 -62 -47c-28 0 -48 21 -42 47l134 631c5 26 35 46 61 46c19 0 36 -12 41 -26l132 -460l85 440c5 26 32 46 61 46s48 -20 43 -46l-134 -631c-5 -22 -26 -40 -50 -46l2 1c-6 -2 -9 -2 -14 -2zM568 918
c27 0 39 -19 39 -40c0 -40 -44 -87 -100 -87c-24 0 -48 12 -62 23l-36 27c-2 -9 -11 -19 -18 -26c-11 -11 -21 -16 -35 -16c-27 0 -39 19 -39 40c0 39 42 86 100 86c27 0 48 -11 62 -22c22 -17 27 -22 35 -26c3 8 8 17 17 26c7 7 19 15 37 15z" />
    <glyph glyph-name="Otilde" unicode="&#xd5;" horiz-adv-x="538" 
d="M264 -6c-116 0 -191 91 -167 204l67 316c24 112 138 204 254 204s190 -92 166 -204l-67 -316c-24 -113 -137 -204 -253 -204zM398 626c-59 0 -118 -51 -131 -112l-67 -316c-13 -61 24 -112 83 -112c58 0 117 51 130 112l67 316c13 61 -24 112 -82 112zM535 901
c27 0 39 -19 39 -40c0 -40 -44 -87 -100 -87c-24 0 -48 12 -62 23l-36 27c-2 -9 -11 -19 -18 -26c-11 -11 -21 -16 -35 -16c-27 0 -39 19 -39 40c0 39 42 86 100 86c27 0 48 -11 62 -22c22 -17 27 -22 35 -26c3 8 8 17 17 26c7 7 19 15 37 15z" />
    <glyph glyph-name="aring" unicode="&#xe5;" horiz-adv-x="466" 
d="M347 536c-51 0 -85 35 -85 82c0 62 61 114 127 114c50 0 85 -35 85 -82c0 -62 -62 -114 -127 -114zM375 669c-44 0 -59 -70 -15 -70c39 0 54 70 15 70zM398 435c12 56 106 53 95 1l-85 -400c-13 -59 -108 -62 -99 0c-26 -31 -59 -44 -92 -45c-100 -3 -159 69 -138 169
l32 151c24 104 95 165 198 165c44 0 74 -11 89 -41zM241 83c40 0 83 28 92 71l34 161c18 97 -126 97 -154 -4l-32 -151c-11 -54 17 -77 60 -77z" />
    <glyph glyph-name="adieresis" unicode="&#xe4;" horiz-adv-x="466" 
d="M398 435c12 56 106 53 95 1l-85 -400c-13 -59 -108 -62 -99 0c-26 -31 -59 -44 -92 -45c-100 -3 -159 69 -138 169l32 151c24 104 95 165 198 165c44 0 74 -11 89 -41zM241 83c40 0 83 28 92 71l34 161c18 97 -126 97 -154 -4l-32 -151c-11 -54 17 -77 60 -77zM289 706
c82 0 59 -116 -25 -116c-82 0 -55 116 25 116zM475 706c82 0 59 -116 -25 -116c-82 0 -55 116 25 116z" />
    <glyph glyph-name="atilde" unicode="&#xe3;" horiz-adv-x="466" 
d="M398 435c12 56 106 53 95 1l-85 -400c-13 -59 -108 -62 -99 0c-26 -31 -59 -44 -92 -45c-100 -3 -159 69 -138 169l32 151c24 104 95 165 198 165c44 0 74 -11 89 -41zM241 83c40 0 83 28 92 71l34 161c18 97 -126 97 -154 -4l-32 -151c-11 -54 17 -77 60 -77zM474 699
c27 0 39 -19 39 -40c0 -40 -44 -87 -100 -87c-24 0 -48 12 -62 23l-36 27c-2 -9 -11 -19 -18 -26c-11 -11 -21 -16 -35 -16c-27 0 -39 19 -39 40c0 39 42 86 100 86c27 0 48 -11 62 -22c22 -17 27 -22 35 -26c3 8 8 17 17 26c7 7 19 15 37 15z" />
    <glyph glyph-name="acircumflex" unicode="&#xe2;" horiz-adv-x="466" 
d="M398 435c12 56 106 53 95 1l-85 -400c-13 -59 -108 -62 -99 0c-26 -31 -59 -44 -92 -45c-100 -3 -159 69 -138 169l32 151c24 104 95 165 198 165c44 0 74 -11 89 -41zM241 83c40 0 83 28 92 71l34 161c18 97 -126 97 -154 -4l-32 -151c-11 -54 17 -77 60 -77zM240 611
l103 85c8 6 22 10 35 10c11 0 24 -5 34 -13l64 -79c25 -28 -8 -74 -46 -74c-12 0 -24 4 -32 11l-41 58l-64 -58c-53 -39 -113 0 -53 60z" />
    <glyph glyph-name="aacute" unicode="&#xe1;" horiz-adv-x="466" 
d="M398 435c12 56 106 53 95 1l-85 -400c-13 -59 -108 -62 -99 0c-26 -31 -59 -44 -92 -45c-100 -3 -159 69 -138 169l32 151c24 104 95 165 198 165c44 0 74 -11 89 -41zM241 83c40 0 83 28 92 71l34 161c18 97 -126 97 -154 -4l-32 -151c-11 -54 17 -77 60 -77zM291 564
c-18 0 -35 9 -38 26v-1c-8 20 10 48 35 62l141 63c27 12 57 2 64 -20s-11 -49 -35 -60l-142 -65c-8 -4 -15 -5 -25 -5z" />
    <glyph glyph-name="agrave" unicode="&#xe0;" horiz-adv-x="466" 
d="M398 435c12 56 106 53 95 1l-85 -400c-13 -59 -108 -62 -99 0c-26 -31 -59 -44 -92 -45c-100 -3 -159 69 -138 169l32 151c24 104 95 165 198 165c44 0 74 -11 89 -41zM241 83c40 0 83 28 92 71l34 161c18 97 -126 97 -154 -4l-32 -151c-11 -54 17 -77 60 -77zM467 583v1
c-15 -24 -50 -32 -73 -21c-40 22 -84 47 -123 68c-20 11 -27 38 -10 60c17 23 51 31 72 20c40 -21 84 -45 124 -66c21 -13 26 -41 10 -62z" />
    <glyph glyph-name="edieresis" unicode="&#xeb;" horiz-adv-x="447" 
d="M323 474c98 0 163 -69 142 -165l-15 -70c-7 -31 -31 -45 -60 -45h-202l-7 -35c-10 -51 27 -75 67 -77c25 -1 50 9 67 32c45 59 121 2 71 -52c-45 -49 -102 -68 -166 -68c-98 0 -163 69 -142 165l33 152c20 94 114 163 212 163zM214 311l-7 -35h150l7 35
c9 43 -19 73 -60 73s-81 -30 -90 -73zM279 694c82 0 59 -116 -25 -116c-82 0 -55 116 25 116zM465 694c82 0 59 -116 -25 -116c-82 0 -55 116 25 116z" />
    <glyph glyph-name="ecircumflex" unicode="&#xea;" horiz-adv-x="447" 
d="M323 474c98 0 163 -69 142 -165l-15 -70c-7 -31 -31 -45 -60 -45h-202l-7 -35c-10 -51 27 -75 67 -77c25 -1 50 9 67 32c45 59 121 2 71 -52c-45 -49 -102 -68 -166 -68c-98 0 -163 69 -142 165l33 152c20 94 114 163 212 163zM214 311l-7 -35h150l7 35
c9 43 -19 73 -60 73s-81 -30 -90 -73zM243 611l103 85c8 6 22 10 35 10c11 0 24 -5 34 -13l64 -79c25 -28 -8 -74 -46 -74c-12 0 -24 4 -32 11l-41 58l-64 -58c-53 -39 -113 0 -53 60z" />
    <glyph glyph-name="eacute" unicode="&#xe9;" horiz-adv-x="447" 
d="M323 474c98 0 163 -69 142 -165l-15 -70c-7 -31 -31 -45 -60 -45h-202l-7 -35c-10 -51 27 -75 67 -77c25 -1 50 9 67 32c45 59 121 2 71 -52c-45 -49 -102 -68 -166 -68c-98 0 -163 69 -142 165l33 152c20 94 114 163 212 163zM214 311l-7 -35h150l7 35
c9 43 -19 73 -60 73s-81 -30 -90 -73zM275 552c-18 0 -35 9 -38 26v-1c-8 20 10 48 35 62l141 63c27 12 57 2 64 -20s-11 -49 -35 -60l-142 -65c-8 -4 -15 -5 -25 -5z" />
    <glyph glyph-name="egrave" unicode="&#xe8;" horiz-adv-x="447" 
d="M323 474c98 0 163 -69 142 -165l-15 -70c-7 -31 -31 -45 -60 -45h-202l-7 -35c-10 -51 27 -75 67 -77c25 -1 50 9 67 32c45 59 121 2 71 -52c-45 -49 -102 -68 -166 -68c-98 0 -163 69 -142 165l33 152c20 94 114 163 212 163zM214 311l-7 -35h150l7 35
c9 43 -19 73 -60 73s-81 -30 -90 -73zM453 580v1c-15 -24 -50 -32 -73 -21c-40 22 -84 47 -123 68c-20 11 -27 38 -10 60c17 23 51 31 72 20c40 -21 84 -45 124 -66c21 -13 26 -41 10 -62z" />
    <glyph glyph-name="ntilde" unicode="&#xf1;" horiz-adv-x="466" 
d="M244 431c34 37 71 46 105 46c84 -1 152 -46 127 -162l-59 -276c-5 -25 -32 -45 -59 -45c-29 0 -48 20 -43 45l59 275c9 44 -18 70 -60 70c-41 0 -81 -26 -90 -70l-59 -275c-5 -25 -32 -45 -59 -45c-29 0 -48 20 -43 45l84 395c10 51 109 63 97 -3zM464 699
c27 0 39 -19 39 -40c0 -40 -44 -87 -100 -87c-24 0 -48 12 -62 23l-36 27c-2 -9 -11 -19 -18 -26c-11 -11 -21 -16 -35 -16c-27 0 -39 19 -39 40c0 39 42 86 100 86c27 0 48 -11 62 -22c22 -17 27 -22 35 -26c3 8 8 17 17 26c7 7 19 15 37 15z" />
    <glyph glyph-name="odieresis" unicode="&#xf6;" horiz-adv-x="456" 
d="M222 -6c-99 0 -163 70 -143 166l32 148c22 101 112 166 213 166c98 0 162 -71 142 -166l-32 -148c-24 -113 -118 -166 -212 -166zM305 384c-41 0 -83 -33 -92 -76l-32 -148c-13 -57 24 -74 61 -74c41 0 81 29 90 74l32 148c11 49 -20 76 -59 76zM284 706
c82 0 59 -116 -25 -116c-82 0 -55 116 25 116zM470 706c82 0 59 -116 -25 -116c-82 0 -55 116 25 116z" />
    <glyph glyph-name="otilde" unicode="&#xf5;" horiz-adv-x="456" 
d="M222 -6c-99 0 -163 70 -143 166l32 148c22 101 112 166 213 166c98 0 162 -71 142 -166l-32 -148c-24 -113 -118 -166 -212 -166zM305 384c-41 0 -83 -33 -92 -76l-32 -148c-13 -57 24 -74 61 -74c41 0 81 29 90 74l32 148c11 49 -20 76 -59 76zM469 699
c27 0 39 -19 39 -40c0 -40 -44 -87 -100 -87c-24 0 -48 12 -62 23l-36 27c-2 -9 -11 -19 -18 -26c-11 -11 -21 -16 -35 -16c-27 0 -39 19 -39 40c0 39 42 86 100 86c27 0 48 -11 62 -22c22 -17 27 -22 35 -26c3 8 8 17 17 26c7 7 19 15 37 15z" />
    <glyph glyph-name="ocircumflex" unicode="&#xf4;" horiz-adv-x="456" 
d="M222 -6c-99 0 -163 70 -143 166l32 148c22 101 112 166 213 166c98 0 162 -71 142 -166l-32 -148c-24 -113 -118 -166 -212 -166zM305 384c-41 0 -83 -33 -92 -76l-32 -148c-13 -57 24 -74 61 -74c41 0 81 29 90 74l32 148c11 49 -20 76 -59 76zM241 615l103 85
c8 6 22 10 35 10c11 0 24 -5 34 -13l64 -79c25 -28 -8 -74 -46 -74c-12 0 -24 4 -32 11l-41 58l-64 -58c-53 -39 -113 0 -53 60z" />
    <glyph glyph-name="oacute" unicode="&#xf3;" horiz-adv-x="456" 
d="M222 -6c-99 0 -163 70 -143 166l32 148c22 101 112 166 213 166c98 0 162 -71 142 -166l-32 -148c-24 -113 -118 -166 -212 -166zM305 384c-41 0 -83 -33 -92 -76l-32 -148c-13 -57 24 -74 61 -74c41 0 81 29 90 74l32 148c11 49 -20 76 -59 76zM280 552
c-18 0 -35 9 -38 26v-1c-8 20 10 48 35 62l141 63c27 12 57 2 64 -20s-11 -49 -35 -60l-142 -65c-8 -4 -15 -5 -25 -5z" />
    <glyph glyph-name="ograve" unicode="&#xf2;" horiz-adv-x="456" 
d="M222 -6c-99 0 -163 70 -143 166l32 148c22 101 112 166 213 166c98 0 162 -71 142 -166l-32 -148c-24 -113 -118 -166 -212 -166zM305 384c-41 0 -83 -33 -92 -76l-32 -148c-13 -57 24 -74 61 -74c41 0 81 29 90 74l32 148c11 49 -20 76 -59 76zM454 581v1
c-15 -24 -50 -32 -73 -21c-40 22 -84 47 -123 68c-20 11 -27 38 -10 60c17 23 51 31 72 20c40 -21 84 -45 124 -66c21 -13 26 -41 10 -62z" />
    <glyph glyph-name="oslash" unicode="&#xf8;" horiz-adv-x="456" 
d="M459 514c27 0 46 -27 27 -54l-35 -49c16 -28 23 -63 15 -103l-32 -148c-21 -96 -114 -166 -212 -166c-25 0 -47 5 -66 12l-23 -31c-9 -12 -28 -21 -43 -21c-26 0 -46 27 -26 54l32 45c-19 28 -26 65 -17 107l32 148c20 95 114 166 213 166c25 0 49 -5 69 -14l24 33
c10 14 27 21 42 21zM305 384c-41 0 -83 -33 -92 -76l-29 -135l148 205c-8 4 -17 6 -27 6zM241 86c41 0 81 29 91 74l27 125l-143 -195c8 -3 16 -4 25 -4z" />
    <glyph glyph-name="udieresis" unicode="&#xfc;" horiz-adv-x="461" 
d="M310 37c-34 -37 -72 -46 -106 -46c-84 1 -151 46 -126 162l58 276c6 25 33 45 60 45c29 0 47 -20 42 -45l-58 -275c-9 -44 18 -70 60 -70c41 0 81 26 90 70l58 275c5 25 33 45 60 45c29 0 47 -20 42 -45l-84 -395c-9 -51 -108 -63 -96 3zM286 706c82 0 59 -116 -25 -116
c-82 0 -55 116 25 116zM472 706c82 0 59 -116 -25 -116c-82 0 -55 116 25 116z" />
    <glyph glyph-name="ucircumflex" unicode="&#xfb;" horiz-adv-x="461" 
d="M310 37c-34 -37 -72 -46 -106 -46c-84 1 -151 46 -126 162l58 276c6 25 33 45 60 45c29 0 47 -20 42 -45l-58 -275c-9 -44 18 -70 60 -70c41 0 81 26 90 70l58 275c5 25 33 45 60 45c29 0 47 -20 42 -45l-84 -395c-9 -51 -108 -63 -96 3zM242 611l103 85c8 6 22 10 35 10
c11 0 24 -5 34 -13l64 -79c25 -28 -8 -74 -46 -74c-12 0 -24 4 -32 11l-41 58l-64 -58c-53 -39 -113 0 -53 60z" />
    <glyph glyph-name="uacute" unicode="&#xfa;" horiz-adv-x="461" 
d="M310 37c-34 -37 -72 -46 -106 -46c-84 1 -151 46 -126 162l58 276c6 25 33 45 60 45c29 0 47 -20 42 -45l-58 -275c-9 -44 18 -70 60 -70c41 0 81 26 90 70l58 275c5 25 33 45 60 45c29 0 47 -20 42 -45l-84 -395c-9 -51 -108 -63 -96 3zM282 552c-18 0 -35 9 -38 26v-1
c-8 20 10 48 35 62l141 63c27 12 57 2 64 -20s-11 -49 -35 -60l-142 -65c-8 -4 -15 -5 -25 -5z" />
    <glyph glyph-name="ugrave" unicode="&#xf9;" horiz-adv-x="461" 
d="M310 37c-34 -37 -72 -46 -106 -46c-84 1 -151 46 -126 162l58 276c6 25 33 45 60 45c29 0 47 -20 42 -45l-58 -275c-9 -44 18 -70 60 -70c41 0 81 26 90 70l58 275c5 25 33 45 60 45c29 0 47 -20 42 -45l-84 -395c-9 -51 -108 -63 -96 3zM442 579v1
c-15 -24 -50 -32 -73 -21c-40 22 -84 47 -123 68c-20 11 -27 38 -10 60c17 23 51 31 72 20c40 -21 84 -45 124 -66c21 -13 26 -41 10 -62z" />
    <glyph glyph-name="yacute" unicode="&#xfd;" horiz-adv-x="472" 
d="M450 474c29 0 47 -20 41 -45l-108 -511c-22 -104 -112 -156 -210 -156c-87 0 -151 42 -151 119c0 47 33 71 65 71c25 0 38 -16 38 -57c0 -36 30 -48 66 -48c41 0 79 18 90 71l20 94c-25 -12 -51 -18 -79 -18c-98 0 -162 76 -141 172l55 263c6 25 33 45 62 45
c28 0 47 -20 41 -45l-55 -263c-10 -45 16 -81 57 -81c33 0 52 1 83 37l65 307c6 25 33 45 61 45zM292 562c-18 0 -35 9 -38 26v-1c-8 20 10 48 35 62l141 63c27 12 57 2 64 -20s-11 -49 -35 -60l-142 -65c-8 -4 -15 -5 -25 -5z" />
    <glyph glyph-name="ydieresis" unicode="&#xff;" horiz-adv-x="472" 
d="M450 474c29 0 47 -20 41 -45l-108 -511c-22 -104 -112 -156 -210 -156c-87 0 -151 42 -151 119c0 47 33 71 65 71c25 0 38 -16 38 -57c0 -36 30 -48 66 -48c41 0 79 18 90 71l20 94c-25 -12 -51 -18 -79 -18c-98 0 -162 76 -141 172l55 263c6 25 33 45 62 45
c28 0 47 -20 41 -45l-55 -263c-10 -45 16 -81 57 -81c33 0 52 1 83 37l65 307c6 25 33 45 61 45zM292 706c82 0 59 -116 -25 -116c-82 0 -55 116 25 116zM478 706c82 0 59 -116 -25 -116c-82 0 -55 116 25 116z" />
  </font>
</defs>
</svg>
